<svg width="42" height="24" viewBox="0 0 42 24" fill="none" xmlns="http://www.w3.org/2000/svg">
<rect x="0.5" y="0.5" width="41" height="23" rx="4.5" fill="#0B0B0C"/>
<rect x="0.5" y="0.5" width="41" height="23" rx="4.5" stroke="#E6E6E6"/>
<path fill-rule="evenodd" clip-rule="evenodd" d="M12.1715 16.0654H13.8388L12.0622 9.37398C11.9255 8.86577 11.3515 7.76465 10.2309 7.76465C8.94627 7.76465 8.45428 8.95047 8.37228 9.28928L6.54099 16.0654H8.18095C8.29939 15.5195 8.8752 14.4278 10.2309 14.4278C11.5155 14.4278 12.0713 15.5195 12.1715 16.0654ZM8.83685 13.5243C9.00996 13.3361 9.5311 12.9596 10.2308 12.9596C10.9305 12.9596 11.4152 13.3361 11.5701 13.5243L10.6135 9.82567C10.6118 9.82047 10.6101 9.81517 10.6084 9.80977C10.5536 9.6392 10.4684 9.37393 10.2035 9.37393C9.93016 9.37393 9.84816 9.5998 9.7935 9.82567L8.83685 13.5243Z" fill="white"/>
<rect x="15.1234" y="7.93408" width="1.63996" height="8.13134" fill="white"/>
<path d="M27.5324 16.0651H25.9647V12.1689C25.9647 12.1305 25.9625 12.0932 25.9587 12.0559C25.9037 11.5167 25.4592 11.096 24.9196 11.096C24.38 11.096 23.9356 11.5167 23.8806 12.0559C23.8767 12.0932 23.8745 12.1305 23.8745 12.1689V16.0651H22.3344V12.1689C22.3344 12.1305 22.3322 12.0932 22.3284 12.0559C22.2734 11.5167 21.8289 11.096 21.2893 11.096C20.7497 11.096 20.3053 11.5167 20.2503 12.0559C20.2464 12.0932 20.2442 12.1305 20.2442 12.1689V16.0651H18.6766V12.0559C18.6914 10.6657 19.7943 9.54313 21.1518 9.54313C22.0066 9.54313 22.6864 9.98866 23.0753 10.668C23.4659 9.97285 24.1573 9.51489 25.0297 9.51489C26.4026 9.51489 27.5175 10.6499 27.5324 12.0559V16.0651Z" fill="white"/>
<path fill-rule="evenodd" clip-rule="evenodd" d="M31.7693 16.2353C32.5774 16.2353 33.306 15.8289 33.8194 15.1781V16.066H35.4594V9.68515H33.8194V10.5728C33.306 9.92197 32.5774 9.51562 31.7693 9.51562C30.2145 9.51562 28.954 11.0199 28.954 12.8755C28.954 14.731 30.2145 16.2353 31.7693 16.2353ZM32.2066 14.6539C33.0972 14.6539 33.8192 13.8576 33.8192 12.8752C33.8192 11.8928 33.0972 11.0965 32.2066 11.0965C31.316 11.0965 30.594 11.8928 30.594 12.8752C30.594 13.8576 31.316 14.6539 32.2066 14.6539Z" fill="white"/>
</svg>
