<svg width="42" height="24" viewBox="0 0 42 24" fill="none" xmlns="http://www.w3.org/2000/svg">
<rect x="0.5" y="0.5" width="41" height="23" rx="4.5" fill="#0B0B0C"/>
<rect x="0.5" y="0.5" width="41" height="23" rx="4.5" stroke="#E6E6E6"/>
<path d="M7.92065 7.76465L4.14201 16.2244H8.66557L9.22636 14.8755H10.5082L11.069 16.2244H16.0481V15.1949L16.4918 16.2244H19.0674L19.5111 15.1731V16.2244H29.8664L31.1256 14.9106L32.3046 16.2244L37.6233 16.2352L33.8327 12.0181L37.6233 7.76465H32.3871L31.1614 9.05417L30.0195 7.76465H18.7543L17.7869 9.94817L16.7969 7.76465H12.2828V8.75909L11.7806 7.76465C11.7806 7.76465 7.92065 7.76465 7.92065 7.76465ZM8.79593 8.96594H11.0009L13.5073 14.7025V8.96594H15.9228L17.8586 13.079L19.6428 8.96594H22.0462V15.0363H20.5838L20.5718 10.2796L18.4398 15.0363H17.1316L14.9876 10.2796V15.0363H11.979L11.4087 13.6754H8.32721L7.75802 15.0351H6.14609L8.79593 8.96594ZM23.3842 8.96594H29.3307L31.1494 10.9535L33.0268 8.96594H34.8456L32.0822 12.0169L34.8456 15.0328H32.9443L31.1256 13.0221L29.2386 15.0328H23.3842V8.96594ZM9.86859 9.99302L8.85337 12.4174H10.8826L9.86859 9.99302ZM24.8526 10.2228V11.331H28.0967V12.5661H24.8526V13.7759H28.4913L30.1821 11.994L28.5631 10.2218H24.8526V10.2228Z" fill="white"/>
</svg>
