<svg width="42" height="24" viewBox="0 0 42 24" fill="none" xmlns="http://www.w3.org/2000/svg">
<rect x="0.5" y="0.5" width="41" height="23" rx="4.5" fill="#0B0B0C"/>
<rect x="0.5" y="0.5" width="41" height="23" rx="4.5" stroke="#E6E6E6"/>
<g clip-path="url(#clip0_134_1270)">
<path d="M11.9132 7.5761C11.5775 7.9788 11.0403 8.29641 10.5031 8.25104C10.436 7.70655 10.699 7.12804 11.0067 6.77072C11.3425 6.35668 11.93 6.06175 12.4056 6.03906C12.4616 6.60624 12.2433 7.16207 11.9132 7.5761ZM12.4 8.3588C11.6222 8.31343 10.9564 8.80687 10.5871 8.80687C10.2122 8.80687 9.64703 8.38149 9.03153 8.39283C8.23137 8.40418 7.48717 8.86359 7.0787 9.59524C6.23938 11.0585 6.86048 13.2252 7.67182 14.4162C8.0691 15.0061 8.54472 15.6527 9.17142 15.63C9.76454 15.6073 9.99955 15.2386 10.7158 15.2386C11.4376 15.2386 11.6446 15.63 12.2713 15.6186C12.9204 15.6073 13.3289 15.0288 13.7262 14.4389C14.1794 13.7696 14.364 13.1174 14.3752 13.0834C14.364 13.072 13.1218 12.5899 13.1106 11.138C13.0995 9.9242 14.0899 9.34568 14.1346 9.31165C13.5751 8.47224 12.7022 8.38149 12.4 8.3588ZM16.8932 6.714V15.5562H18.2473V12.5332H20.1218C21.834 12.5332 23.0371 11.3421 23.0371 9.61793C23.0371 7.89372 21.8564 6.714 20.1666 6.714H16.8932ZM18.2473 7.87103H19.8085C20.9835 7.87103 21.655 8.50627 21.655 9.6236C21.655 10.7409 20.9835 11.3818 19.8029 11.3818H18.2473V7.87103ZM25.5103 15.6243C26.3608 15.6243 27.1497 15.1876 27.5079 14.4956H27.5358V15.5562H28.7892V11.155C28.7892 9.87883 27.782 9.05643 26.2321 9.05643C24.794 9.05643 23.7309 9.89017 23.6917 11.0359H24.9115C25.0123 10.4914 25.5103 10.1341 26.1929 10.1341C27.021 10.1341 27.4855 10.5254 27.4855 11.2457V11.7335L25.7956 11.8356C24.2233 11.932 23.3728 12.5842 23.3728 13.7186C23.3728 14.8643 24.2513 15.6243 25.5103 15.6243ZM25.874 14.575C25.1522 14.575 24.6933 14.2234 24.6933 13.6846C24.6933 13.1287 25.1354 12.8054 25.9803 12.7544L27.4855 12.658V13.1571C27.4855 13.9852 26.7916 14.575 25.874 14.575ZM30.4623 17.9611C31.7828 17.9611 32.4039 17.4506 32.9467 15.9022L35.3248 9.1415H33.9483L32.3536 14.3652H32.3256L30.7309 9.1415H29.3152L31.6094 15.5789L31.4863 15.9703C31.2792 16.6339 30.9435 16.8891 30.3448 16.8891C30.2385 16.8891 30.0314 16.8778 29.9475 16.8664V17.927C30.0258 17.9497 30.3616 17.9611 30.4623 17.9611Z" fill="white"/>
</g>
<defs>
<clipPath id="clip0_134_1270">
<rect width="28.6489" height="11.922" fill="white" transform="translate(6.67551 6.03906)"/>
</clipPath>
</defs>
</svg>
