<svg width="42" height="24" viewBox="0 0 42 24" fill="none" xmlns="http://www.w3.org/2000/svg">
<rect x="0.5" y="0.5" width="41" height="23" rx="4.5" fill="#0B0B0C"/>
<rect x="0.5" y="0.5" width="41" height="23" rx="4.5" stroke="#E6E6E6"/>
<path d="M22.4947 12.439H32.116C33.7955 12.439 35.157 13.8005 35.157 15.48C35.157 17.1595 33.7955 18.521 32.116 18.521H22.4947V12.439Z" fill="white"/>
<path d="M22.4947 5.50391H32.121C33.7977 5.50391 35.157 6.86316 35.157 8.53988C35.157 10.2166 33.7977 11.5759 32.121 11.5759H22.4947V5.50391Z" fill="white"/>
<g clip-path="url(#clip0_134_1214)">
<path d="M14.2579 12.4359V11.5728H21.6686C21.4494 7.93523 18.476 5.05469 14.8404 5.05469H13.6753C9.89678 5.05469 6.83386 8.16651 6.83386 12.0048C6.83386 15.843 9.89678 18.9548 13.6753 18.9548H14.8404C18.476 18.9548 21.4489 16.0737 21.6684 12.4367L14.2579 12.4359Z" fill="white"/>
</g>
<defs>
<clipPath id="clip0_134_1214">
<rect width="14.8348" height="13.9001" fill="white" transform="translate(6.83386 5.05371)"/>
</clipPath>
</defs>
</svg>
