<svg width="42" height="24" viewBox="0 0 42 24" fill="none" xmlns="http://www.w3.org/2000/svg">
<rect x="0.5" y="0.5" width="41" height="23" rx="4.5" fill="#0B0B0C"/>
<rect x="0.5" y="0.5" width="41" height="23" rx="4.5" stroke="#E6E6E6"/>
<g clip-path="url(#clip0_134_1273)">
<path d="M20.1696 11.8554V15.5557H19.0351V6.41761H22.0439C22.403 6.40984 22.7601 6.47575 23.0945 6.61153C23.4289 6.74731 23.734 6.95027 23.9922 7.2087C24.253 7.45144 24.4606 7.74914 24.601 8.08178C24.7413 8.41442 24.8113 8.7743 24.8061 9.13723C24.8135 9.5021 24.7447 9.86433 24.6042 10.1991C24.4637 10.5339 24.255 10.8332 23.9922 11.0767C23.4661 11.5958 22.8166 11.8552 22.0439 11.8547H20.1696V11.8554ZM20.1696 7.54264V10.7325H22.0721C22.2807 10.7389 22.4882 10.7002 22.6815 10.6189C22.8748 10.5375 23.0495 10.4153 23.1946 10.2601C23.3388 10.1149 23.4535 9.94133 23.5318 9.74954C23.6101 9.55774 23.6505 9.35164 23.6505 9.14343C23.6505 8.93521 23.6101 8.72912 23.5318 8.53732C23.4535 8.34552 23.3388 8.17192 23.1946 8.02678C23.0514 7.86827 22.8772 7.74307 22.6837 7.65948C22.4902 7.57589 22.2817 7.53582 22.0721 7.54191H20.1696V7.54264Z" fill="white"/>
<path d="M27.4203 9.09937C28.2588 9.09937 28.9207 9.33123 29.4059 9.79495C29.8912 10.2587 30.1336 10.8945 30.1331 11.7023V15.5557H29.048V14.6881H28.9986C28.5289 15.4026 27.9041 15.7599 27.1243 15.7599C26.4587 15.7599 25.9018 15.5557 25.4536 15.1474C25.2386 14.96 25.0666 14.7253 24.9503 14.4604C24.834 14.1956 24.7763 13.9072 24.7814 13.6163C24.7814 12.9693 25.0177 12.4548 25.4903 12.0727C25.9628 11.6907 26.5937 11.4991 27.3829 11.4982C28.0565 11.4982 28.6113 11.6258 29.0473 11.881V11.6126C29.0485 11.4143 29.0072 11.2182 28.9261 11.0385C28.8451 10.8588 28.7264 10.7 28.5787 10.5736C28.2787 10.2936 27.8877 10.1408 27.4837 10.1457C26.85 10.1457 26.3485 10.4222 25.9793 10.9754L24.9801 10.3243C25.5297 9.50767 26.3431 9.09937 27.4203 9.09937ZM25.9525 13.6418C25.9517 13.7912 25.9855 13.9386 26.051 14.0718C26.1164 14.205 26.2117 14.32 26.3288 14.4074C26.5797 14.6116 26.8911 14.7198 27.2103 14.7136C27.689 14.7128 28.1479 14.5156 28.4864 14.1653C28.8622 13.7993 29.0501 13.3698 29.0501 12.8769C28.6964 12.5853 28.2031 12.4395 27.5704 12.4395C27.1095 12.4395 26.7253 12.5544 26.4176 12.7843C26.1068 13.0177 25.9525 13.3013 25.9525 13.6418Z" fill="white"/>
<path d="M36.3621 9.30347L32.574 18.3118H31.4029L32.8086 15.1598L30.3177 9.30347H31.5509L33.3512 13.7949H33.3759L35.1269 9.30347H36.3621Z" fill="white"/>
<path d="M15.5851 11.0577C15.5856 10.6999 15.5563 10.3428 15.4978 9.99023H10.7133V12.0121H13.4536C13.3975 12.335 13.2788 12.6428 13.1047 12.917C12.9306 13.1912 12.7046 13.426 12.4403 13.6074V14.9198H14.0758C15.0334 14.0062 15.5851 12.6552 15.5851 11.0577Z" fill="white"/>
<path d="M10.7134 16.1878C12.0825 16.1878 13.2353 15.7226 14.0759 14.9206L12.4405 13.6082C11.9853 13.9275 11.399 14.1098 10.7134 14.1098C9.39009 14.1098 8.2669 13.1868 7.86526 11.9429H6.18048V13.2954C6.60275 14.1649 7.25024 14.8958 8.05068 15.4065C8.85112 15.9173 9.773 16.1878 10.7134 16.1878Z" fill="white"/>
<path d="M7.86523 11.9428C7.6529 11.291 7.6529 10.5851 7.86523 9.93333V8.58081H6.18045C5.82523 9.31223 5.64023 10.1195 5.64023 10.9381C5.64023 11.7566 5.82523 12.5639 6.18045 13.2953L7.86523 11.9428Z" fill="white"/>
<path d="M10.7134 7.76657C11.4369 7.75434 12.136 8.03721 12.6596 8.55402L14.1076 7.05568C13.1894 6.16329 11.973 5.67335 10.7134 5.68858C9.773 5.68862 8.85112 5.95912 8.05068 6.46988C7.25024 6.98063 6.60275 7.71154 6.18048 8.581L7.86526 9.93352C8.2669 8.68964 9.39009 7.76657 10.7134 7.76657Z" fill="white"/>
</g>
<defs>
<clipPath id="clip0_134_1273">
<rect width="30.7199" height="12.6233" fill="white" transform="translate(5.63998 5.68848)"/>
</clipPath>
</defs>
</svg>
