<svg width="42" height="24" viewBox="0 0 42 24" fill="none" xmlns="http://www.w3.org/2000/svg">
<rect x="0.5" y="0.5" width="41" height="23" rx="4.5" fill="#0B0B0C"/>
<rect x="0.5" y="0.5" width="41" height="23" rx="4.5" stroke="#E6E6E6"/>
<path d="M13.9663 20.3786V19.2616C13.9663 18.8343 13.7013 18.5545 13.2463 18.5545C13.0189 18.5545 12.7715 18.6282 12.6015 18.8711C12.469 18.6673 12.2791 18.5545 11.9942 18.5545C11.8043 18.5545 11.6143 18.6109 11.4642 18.8148V18.5914H11.0667V20.3786H11.4642V19.3917C11.4642 19.075 11.6342 18.9254 11.8992 18.9254C12.1642 18.9254 12.2967 19.0924 12.2967 19.3917V20.3786H12.6942V19.3917C12.6942 19.075 12.8842 18.9254 13.1293 18.9254C13.3943 18.9254 13.5268 19.0924 13.5268 19.3917V20.3786H13.9663ZM19.8626 18.5914H19.2178V18.0513H18.8203V18.5914H18.4603V18.9449H18.8203V19.7648C18.8203 20.1747 18.9903 20.4154 19.4453 20.4154C19.6153 20.4154 19.8052 20.359 19.9377 20.2853L19.8229 19.9491C19.7081 20.0229 19.5756 20.0424 19.4806 20.0424C19.2907 20.0424 19.2156 19.9296 19.2156 19.7452V18.9449H19.8604V18.5914H19.8626ZM23.2371 18.5523C23.0096 18.5523 22.8572 18.6651 22.7623 18.8126V18.5892H22.3647V20.3764H22.7623V19.37C22.7623 19.0729 22.8948 18.9037 23.1421 18.9037C23.2172 18.9037 23.3121 18.9232 23.3894 18.9406L23.5043 18.5675C23.4248 18.5523 23.3121 18.5523 23.2371 18.5523ZM18.1379 18.7388C17.948 18.6087 17.683 18.5523 17.3981 18.5523C16.9432 18.5523 16.6406 18.7757 16.6406 19.1293C16.6406 19.4264 16.8681 19.5956 17.2656 19.6498L17.4555 19.6693C17.6631 19.7062 17.7779 19.7626 17.7779 19.8559C17.7779 19.986 17.6256 20.0793 17.3605 20.0793C17.0955 20.0793 16.8857 19.986 16.7532 19.8927L16.5633 20.1899C16.7709 20.3395 17.0558 20.4133 17.3407 20.4133C17.8707 20.4133 18.1754 20.1704 18.1754 19.8363C18.1754 19.5197 17.9281 19.3527 17.5505 19.2963L17.3605 19.2767C17.1905 19.2572 17.058 19.2204 17.058 19.1097C17.058 18.9796 17.1905 18.9059 17.4003 18.9059C17.6278 18.9059 17.8552 18.9991 17.9701 19.0555L18.1379 18.7388ZM28.7138 18.5523C28.4864 18.5523 28.334 18.6651 28.239 18.8126V18.5892H27.8415V20.3764H28.239V19.37C28.239 19.0729 28.3715 18.9037 28.6189 18.9037C28.694 18.9037 28.7889 18.9232 28.8662 18.9406L28.9811 18.5718C28.9038 18.5523 28.7911 18.5523 28.7138 18.5523ZM23.6346 19.485C23.6346 20.025 24.0144 20.4154 24.6018 20.4154C24.8668 20.4154 25.0568 20.359 25.2467 20.2116L25.0568 19.8949C24.9044 20.0077 24.7542 20.0619 24.582 20.0619C24.2595 20.0619 24.0321 19.8385 24.0321 19.485C24.0321 19.1488 24.2595 18.9254 24.582 18.908C24.752 18.908 24.9044 18.9644 25.0568 19.075L25.2467 18.7584C25.0568 18.6087 24.8668 18.5545 24.6018 18.5545C24.0144 18.5523 23.6346 18.9449 23.6346 19.485ZM27.3115 19.485V18.5914H26.914V18.8148C26.7815 18.6477 26.5916 18.5545 26.3443 18.5545C25.8319 18.5545 25.4344 18.9449 25.4344 19.485C25.4344 20.025 25.8319 20.4154 26.3443 20.4154C26.6093 20.4154 26.7992 20.3222 26.914 20.1552V20.3786H27.3115V19.485ZM25.8518 19.485C25.8518 19.1683 26.0594 18.908 26.4017 18.908C26.7241 18.908 26.9516 19.1509 26.9516 19.485C26.9516 19.8016 26.7241 20.0619 26.4017 20.0619C26.0616 20.0424 25.8518 19.7995 25.8518 19.485ZM21.0949 18.5523C20.5649 18.5523 20.1851 18.9254 20.1851 19.4828C20.1851 20.0424 20.5649 20.4133 21.1148 20.4133C21.3798 20.4133 21.6448 20.3395 21.8546 20.1704L21.6647 19.8906C21.5123 20.0033 21.3224 20.0771 21.1347 20.0771C20.8873 20.0771 20.6422 19.9643 20.5848 19.6498H21.9297C21.9297 19.5934 21.9297 19.5565 21.9297 19.5001C21.9474 18.9254 21.6051 18.5523 21.0949 18.5523ZM21.0949 18.8885C21.3423 18.8885 21.5123 19.0382 21.5498 19.3158H20.6025C20.64 19.075 20.81 18.8885 21.0949 18.8885ZM30.9708 19.485V17.8843H30.5733V18.8148C30.4408 18.6477 30.2509 18.5545 30.0035 18.5545C29.4912 18.5545 29.0937 18.9449 29.0937 19.485C29.0937 20.025 29.4912 20.4154 30.0035 20.4154C30.2685 20.4154 30.4585 20.3222 30.5733 20.1552V20.3786H30.9708V19.485ZM29.5111 19.485C29.5111 19.1683 29.7187 18.908 30.061 18.908C30.3834 18.908 30.6108 19.1509 30.6108 19.485C30.6108 19.8016 30.3834 20.0619 30.061 20.0619C29.7187 20.0424 29.5111 19.7995 29.5111 19.485ZM16.2034 19.485V18.5914H15.8058V18.8148C15.6733 18.6477 15.4834 18.5545 15.2361 18.5545C14.7237 18.5545 14.3262 18.9449 14.3262 19.485C14.3262 20.025 14.7237 20.4154 15.2361 20.4154C15.5011 20.4154 15.691 20.3222 15.8058 20.1552V20.3786H16.2034V19.485ZM14.7259 19.485C14.7259 19.1683 14.9335 18.908 15.2758 18.908C15.5983 18.908 15.8257 19.1509 15.8257 19.485C15.8257 19.8016 15.5983 20.0619 15.2758 20.0619C14.9335 20.0424 14.7259 19.7995 14.7259 19.485Z" fill="white"/>
<path d="M23.9769 5.01807H18.0054V15.5548H23.9769V5.01807Z" fill="#0B0B0C"/>
<path d="M18.4029 10.2865C18.4029 8.14577 19.4276 6.24577 21 5.01815C19.8428 4.12454 18.383 3.58447 16.7908 3.58447C13.0189 3.58447 9.96689 6.58196 9.96689 10.2865C9.96689 13.9911 13.0189 16.9886 16.7908 16.9886C18.383 16.9886 19.8428 16.4485 21 15.5549C19.4254 14.3446 18.4029 12.4273 18.4029 10.2865Z" fill="white"/>
<path d="M32.0331 10.2865C32.0331 13.9911 28.9811 16.9886 25.2092 16.9886C23.6169 16.9886 22.1572 16.4485 21 15.5549C22.5922 14.3251 23.597 12.4273 23.597 10.2865C23.597 8.14577 22.5723 6.24577 21 5.01815C22.155 4.12454 23.6147 3.58447 25.2069 3.58447C28.9811 3.58447 32.0331 6.60148 32.0331 10.2865Z" fill="white"/>
</svg>
