<svg width="42" height="24" viewBox="0 0 42 24" fill="none" xmlns="http://www.w3.org/2000/svg">
<rect x="0.5" y="0.5" width="41" height="23" rx="4.5" fill="#0B0B0C"/>
<rect x="0.5" y="0.5" width="41" height="23" rx="4.5" stroke="#E6E6E6"/>
<path d="M16.9702 9.74951H15.1853C15.0631 9.74951 14.9593 9.83966 14.9402 9.96215L14.2183 14.6118C14.2039 14.7035 14.2739 14.7863 14.3655 14.7863H15.2176C15.3398 14.7863 15.4437 14.6961 15.4627 14.5733L15.6574 13.3193C15.6762 13.1965 15.7803 13.1064 15.9022 13.1064H16.4673C17.643 13.1064 18.3216 12.5284 18.4988 11.383C18.5787 10.8819 18.5022 10.4882 18.2712 10.2124C18.0175 9.90965 17.5676 9.74951 16.9702 9.74951ZM17.1761 11.4477C17.0785 12.0983 16.5891 12.0983 16.116 12.0983H15.8466L16.0356 10.8832C16.0468 10.8098 16.1094 10.7557 16.1825 10.7557H16.306C16.6283 10.7557 16.9323 10.7557 17.0895 10.9423C17.1832 11.0537 17.2119 11.2191 17.1761 11.4477Z" fill="white"/>
<path d="M22.3056 11.4269H21.4509C21.3781 11.4269 21.3152 11.481 21.304 11.5544L21.2661 11.7973L21.2064 11.7092C21.0213 11.4364 20.6087 11.3452 20.1968 11.3452C19.2523 11.3452 18.4456 12.0719 18.2885 13.0914C18.2068 13.5999 18.3229 14.0862 18.6069 14.4253C18.8674 14.7371 19.2401 14.867 19.6835 14.867C20.4445 14.867 20.8665 14.3699 20.8665 14.3699L20.8284 14.6111C20.8141 14.7034 20.884 14.7861 20.9751 14.7861H21.745C21.8674 14.7861 21.9708 14.696 21.9901 14.5732L22.4521 11.6013C22.4667 11.5099 22.397 11.4269 22.3056 11.4269ZM21.1142 13.1168C21.0318 13.6129 20.6442 13.9459 20.1499 13.9459C19.9017 13.9459 19.7033 13.865 19.5759 13.7118C19.4496 13.5596 19.4016 13.343 19.4418 13.1017C19.5188 12.6099 19.9129 12.266 20.3996 12.266C20.6424 12.266 20.8397 12.3479 20.9696 12.5025C21.0999 12.6587 21.1515 12.8766 21.1142 13.1168Z" fill="white"/>
<path d="M26.8578 11.4268H25.9989C25.917 11.4268 25.84 11.4681 25.7935 11.5373L24.6089 13.31L24.1067 11.6065C24.0752 11.4999 23.9783 11.4268 23.8687 11.4268H23.0247C22.9221 11.4268 22.8509 11.5286 22.8835 11.6267L23.8296 14.4472L22.9401 15.7227C22.8702 15.8232 22.9406 15.9613 23.0615 15.9613H23.9194C24.0008 15.9613 24.077 15.921 24.1232 15.8532L26.98 11.6641C27.0484 11.5638 26.9782 11.4268 26.8578 11.4268Z" fill="white"/>
<path d="M29.7016 9.74951H27.9164C27.7945 9.74951 27.6906 9.83966 27.6716 9.96215L26.9497 14.6118C26.9353 14.7035 27.0053 14.7863 27.0964 14.7863H28.0124C28.0975 14.7863 28.1703 14.7231 28.1837 14.6372L28.3885 13.3193C28.4073 13.1965 28.5115 13.1064 28.6333 13.1064H29.1981C30.3741 13.1064 31.0525 12.5284 31.2299 11.383C31.3101 10.8819 31.2331 10.4882 31.0021 10.2124C30.7487 9.90965 30.299 9.74951 29.7016 9.74951ZM29.9075 11.4477C29.8101 12.0983 29.3208 12.0983 28.8474 12.0983H28.5783L28.7675 10.8832C28.7787 10.8098 28.8408 10.7557 28.9142 10.7557H29.0376C29.3597 10.7557 29.664 10.7557 29.8211 10.9423C29.9148 11.0537 29.9433 11.2191 29.9075 11.4477Z" fill="white"/>
<path d="M35.0368 11.4269H34.1825C34.1092 11.4269 34.0468 11.481 34.0359 11.5544L33.998 11.7973L33.938 11.7092C33.753 11.4364 33.3406 11.3452 32.9287 11.3452C31.9842 11.3452 31.1778 12.0719 31.0206 13.0914C30.9392 13.5999 31.0548 14.0862 31.3388 14.4253C31.5998 14.7371 31.972 14.867 32.4154 14.867C33.1764 14.867 33.5984 14.3699 33.5984 14.3699L33.5603 14.6111C33.546 14.7034 33.6159 14.7861 33.7075 14.7861H34.4772C34.5991 14.7861 34.703 14.696 34.722 14.5732L35.1842 11.6013C35.1983 11.5099 35.1284 11.4269 35.0368 11.4269ZM33.8453 13.1168C33.7634 13.6129 33.3753 13.9459 32.881 13.9459C32.6333 13.9459 32.4344 13.865 32.3071 13.7118C32.1807 13.5596 32.1332 13.343 32.1729 13.1017C32.2504 12.6099 32.644 12.266 33.1308 12.266C33.3735 12.266 33.5708 12.3479 33.7008 12.5025C33.8315 12.6587 33.8832 12.8766 33.8453 13.1168Z" fill="white"/>
<path d="M36.0445 9.87706L35.3119 14.6118C35.2975 14.7035 35.3675 14.7863 35.4585 14.7863H36.1951C36.3175 14.7863 36.4213 14.6961 36.4401 14.5734L37.1626 9.92399C37.1769 9.83225 37.107 9.74927 37.0159 9.74927H36.1912C36.1183 9.74953 36.0557 9.80362 36.0445 9.87706Z" fill="white"/>
<path d="M6.80594 15.6899L6.94244 14.8091L6.63838 14.802H5.18649L6.19548 8.30275C6.19861 8.28313 6.20879 8.26483 6.22367 8.25184C6.23855 8.23885 6.2576 8.23169 6.27743 8.23169H8.72553C9.53825 8.23169 10.0991 8.4035 10.392 8.7426C10.5292 8.90168 10.6167 9.06792 10.6589 9.25086C10.7033 9.44282 10.7041 9.67216 10.6608 9.95187L10.6576 9.97229V10.1515L10.7949 10.2305C10.9105 10.2928 11.0024 10.3642 11.0729 10.4458C11.1903 10.5818 11.2663 10.7547 11.2984 10.9596C11.3315 11.1704 11.3206 11.4212 11.2663 11.7052C11.2036 12.0318 11.1024 12.3163 10.9656 12.5491C10.8398 12.7636 10.6796 12.9415 10.4893 13.0794C10.3077 13.2104 10.0918 13.3098 9.84779 13.3734C9.61133 13.436 9.34172 13.4675 9.04602 13.4675H8.8555C8.71926 13.4675 8.58694 13.5174 8.48307 13.6067C8.37893 13.6979 8.31003 13.8226 8.28889 13.9588L8.27453 14.0381L8.03338 15.5905L8.02242 15.6475C8.01955 15.6655 8.01459 15.6745 8.00728 15.6806C8.00076 15.6862 7.99136 15.6899 7.98222 15.6899H6.80594Z" fill="white"/>
<path d="M10.9249 9.99292C10.9176 10.0404 10.9093 10.0889 10.8999 10.1387C10.577 11.8226 9.47252 12.4043 8.06187 12.4043H7.34362C7.17111 12.4043 7.02573 12.5316 6.99885 12.7044L6.63112 15.0737L6.52698 15.7453C6.50949 15.8587 6.59562 15.9611 6.70837 15.9611H7.98226C8.13312 15.9611 8.26126 15.8497 8.28501 15.6986L8.29754 15.6328L8.53739 14.0866L8.55279 14.0017C8.57628 13.8501 8.70469 13.7387 8.85554 13.7387H9.04606C10.2803 13.7387 11.2465 13.2297 11.5289 11.7566C11.6468 11.1412 11.5858 10.6274 11.2736 10.266C11.1791 10.157 11.062 10.0666 10.9249 9.99292Z" fill="white"/>
<path d="M10.5872 9.85624C10.5378 9.84166 10.4869 9.82841 10.4348 9.81647C10.3823 9.80481 10.3285 9.79447 10.2732 9.78545C10.0795 9.75364 9.86736 9.73853 9.64004 9.73853H7.72123C7.67399 9.73853 7.6291 9.7494 7.58891 9.76902C7.50043 9.81223 7.43466 9.89734 7.41874 10.0015L7.01055 12.6279L6.99881 12.7046C7.02569 12.5317 7.17106 12.4044 7.34358 12.4044H8.06182C9.47248 12.4044 10.577 11.8225 10.8998 10.1389C10.9095 10.089 10.9176 10.0405 10.9249 9.99305C10.8432 9.94904 10.7547 9.91139 10.6595 9.87931C10.636 9.87136 10.6117 9.86367 10.5872 9.85624Z" fill="white"/>
<path d="M7.41874 10.0015C7.43466 9.89727 7.50043 9.81216 7.5889 9.76921C7.62936 9.74959 7.67399 9.73872 7.72123 9.73872H9.64003C9.86735 9.73872 10.0795 9.75383 10.2732 9.78565C10.3285 9.79466 10.3823 9.805 10.4347 9.81667C10.4869 9.8286 10.5378 9.84186 10.5872 9.85644C10.6117 9.86386 10.636 9.87155 10.6597 9.87924C10.755 9.91132 10.8435 9.94924 10.9251 9.99298C11.0212 9.37071 10.9244 8.94703 10.5932 8.56338C10.228 8.14103 9.56904 7.96021 8.72578 7.96021H6.27769C6.10543 7.96021 5.95849 8.08747 5.93187 8.2606L4.91218 14.8266C4.89209 14.9565 4.99074 15.0737 5.11967 15.0737H6.63107L7.01055 12.6279L7.41874 10.0015Z" fill="white"/>
</svg>
