<svg width="42" height="24" viewBox="0 0 42 24" fill="none" xmlns="http://www.w3.org/2000/svg">
<rect x="0.5" y="0.5" width="41" height="23" rx="4.5" fill="#0B0B0C"/>
<rect x="0.5" y="0.5" width="41" height="23" rx="4.5" stroke="#E6E6E6"/>
<path d="M19.1108 16.9042H16.7246L18.2171 6.94653H20.6032L19.1108 16.9042Z" fill="white"/>
<path d="M27.7612 7.18981C27.2905 6.98833 26.544 6.76587 25.6209 6.76587C23.2644 6.76587 21.605 8.12174 21.5949 10.0602C21.5753 11.4904 22.7829 12.2848 23.6862 12.7617C24.6094 13.249 24.9232 13.567 24.9232 14.0014C24.9138 14.6685 24.1772 14.976 23.4902 14.976C22.5375 14.976 22.027 14.8175 21.2513 14.4463L20.9371 14.2872L20.6031 16.5225C21.1628 16.7976 22.1939 17.0418 23.2644 17.0525C25.7682 17.0525 27.3983 15.7176 27.4176 13.6518C27.4271 12.5182 26.7894 11.6497 25.4146 10.9399C24.58 10.4843 24.0689 10.1771 24.0689 9.71091C24.0787 9.28711 24.5012 8.85303 25.4433 8.85303C26.2191 8.83177 26.789 9.03297 27.2208 9.23431L27.4367 9.34005L27.7612 7.18981Z" fill="white"/>
<path d="M30.9326 13.3766C31.1291 12.8045 31.8853 10.5905 31.8853 10.5905C31.8754 10.6117 32.0814 10.0079 32.1992 9.63715L32.366 10.4952C32.366 10.4952 32.8179 12.8787 32.916 13.3766C32.5431 13.3766 31.4039 13.3766 30.9326 13.3766ZM33.8781 6.94653H32.0324C31.4632 6.94653 31.0307 7.12647 30.7852 7.77273L27.2407 16.9041H29.7445C29.7445 16.9041 30.1567 15.6751 30.2453 15.4104C30.52 15.4104 32.9557 15.4104 33.309 15.4104C33.3776 15.76 33.5938 16.9041 33.5938 16.9041H35.8032L33.8781 6.94653Z" fill="white"/>
<path d="M14.7314 6.94653L12.3945 13.7367L12.1391 12.3596C11.7071 10.7706 10.3521 9.04412 8.84003 8.18568L10.9805 16.8937H13.5039L17.2546 6.94653H14.7314Z" fill="white"/>
<path d="M10.2247 6.94653H6.38547L6.34619 7.14773C9.34101 7.97406 11.3244 9.96591 12.1393 12.36L11.3047 7.78357C11.1673 7.14759 10.7451 6.96751 10.2247 6.94653Z" fill="white"/>
</svg>
