<svg width="77" height="77" viewBox="0 0 77 77" fill="none" xmlns="http://www.w3.org/2000/svg">
<path fill-rule="evenodd" clip-rule="evenodd" d="M35.5646 1.75029C35.1378 2.71302 34.7518 3.48719 34.7068 3.47053C34.6619 3.45399 34.1337 2.77507 33.5331 1.96167C32.9324 1.14827 32.4173 0.482873 32.3882 0.482873C32.3593 0.482873 32.0799 1.25692 31.7675 2.20311C31.4552 3.1493 31.1631 3.9639 31.1185 4.01352C31.074 4.06313 30.4771 3.4791 29.7921 2.7158C29.1072 1.9525 28.509 1.3279 28.4627 1.3279C28.4164 1.3279 28.1993 2.15639 27.9801 3.16885C27.761 4.18144 27.5673 5.02622 27.5498 5.04626C27.5322 5.06618 26.8764 4.50822 26.0926 3.80637C25.1289 2.94335 24.6412 2.57975 24.5865 2.68345C24.542 2.76783 24.4363 3.54308 24.3517 4.40622C24.2671 5.26935 24.1649 6.06657 24.1247 6.17775C24.0651 6.34266 23.7631 6.17172 22.4834 5.24895L20.9151 4.11806L20.8548 6.1005L20.7945 8.08281L19.1101 7.12527C18.1838 6.59858 17.4102 6.18319 17.3912 6.20226C17.3721 6.22133 17.4427 7.06516 17.5479 8.0775C17.6532 9.08984 17.7088 9.94863 17.6715 9.98581C17.6343 10.0231 16.8356 9.7177 15.8968 9.30713C14.958 8.89645 14.1713 8.57908 14.1486 8.60178C14.126 8.62447 14.2703 9.42556 14.4693 10.3819C14.6684 11.3382 14.8158 12.1822 14.7968 12.2575C14.7748 12.3459 14.123 12.1899 12.9564 11.8172C11.963 11.4997 11.1381 11.2523 11.1233 11.267C11.1086 11.2818 11.3559 12.1073 11.6731 13.1013C12.0456 14.2687 12.2014 14.9209 12.1131 14.943C12.0378 14.9619 11.1945 14.8144 10.2388 14.6152C9.28306 14.416 8.4825 14.2717 8.45982 14.2944C8.43714 14.3171 8.7543 15.1043 9.16471 16.0437C9.575 16.9831 9.88022 17.7823 9.84294 17.8196C9.80578 17.8569 8.94756 17.8012 7.93589 17.6958C6.92421 17.5906 6.08095 17.52 6.06189 17.539C6.04283 17.5581 6.45794 18.3321 6.98429 19.2591L7.94119 20.9446L5.96839 21.005L3.99559 21.0653L5.11825 22.6347C6.03716 23.9191 6.20424 24.2173 6.03812 24.277C5.92665 24.3172 5.12959 24.4195 4.26703 24.5041C3.40446 24.5889 2.63262 24.693 2.55167 24.7355C2.45648 24.7856 2.84989 25.3141 3.66757 26.2348C4.36221 27.0169 4.93054 27.6737 4.93054 27.6946C4.93054 27.7153 4.08908 27.9119 3.06064 28.1312C2.0322 28.3506 1.19074 28.5666 1.19074 28.6115C1.19074 28.6563 1.81625 29.2544 2.58086 29.9405C3.34535 30.6267 3.929 31.2261 3.87773 31.2724C3.82645 31.3187 3.01094 31.6124 2.06537 31.9249C1.11993 32.2374 0.346274 32.517 0.346274 32.546C0.346274 32.5751 1.01123 33.0906 1.8241 33.6916C2.63696 34.2927 3.31543 34.8212 3.33196 34.8661C3.34861 34.9111 2.57121 35.2991 1.60465 35.7281C0.0316488 36.4266 -0.129765 36.5253 0.0666341 36.6701C0.187273 36.7591 0.950914 37.2159 1.76378 37.6852C2.57664 38.1546 3.2416 38.5525 3.2416 38.5695C3.2416 38.5865 2.57664 38.9844 1.76378 39.4537C0.950914 39.9231 0.187273 40.3799 0.0666341 40.4689C-0.129765 40.6136 0.0316488 40.7123 1.60465 41.4108C2.57121 41.8398 3.34861 42.2269 3.33196 42.2707C3.31543 42.3145 2.62333 42.8493 1.79394 43.4592C0.964547 44.069 0.270393 44.5829 0.251332 44.6013C0.23215 44.6196 1.01932 44.8909 2.00059 45.2043C2.98174 45.5177 3.82621 45.8135 3.87712 45.8618C3.92803 45.9102 3.31133 46.5422 2.50655 47.2663L1.04332 48.5828L2.83613 48.9741C3.82223 49.1892 4.70639 49.3808 4.80109 49.3997C4.90822 49.4211 4.48948 49.9789 3.69255 50.876C2.98826 51.6691 2.43332 52.3526 2.4595 52.395C2.48568 52.4373 3.2276 52.5435 4.10815 52.6307C6.53262 52.8711 6.4273 52.6756 5.11873 54.5043L3.99559 56.0736L5.96839 56.134L7.94119 56.1943L6.98429 57.8798C6.45794 58.8068 6.03921 59.5773 6.05392 59.5919C6.06864 59.6067 6.91227 59.5364 7.92877 59.436C8.94527 59.3354 9.80699 59.2834 9.84378 59.3202C9.88058 59.357 9.575 60.1558 9.16471 61.0953C8.7543 62.0347 8.43714 62.8219 8.45982 62.8446C8.4825 62.8673 9.28306 62.7229 10.2388 62.5237C11.1945 62.3245 12.0378 62.177 12.1131 62.196C12.2014 62.2181 12.0456 62.8703 11.6731 64.0376C11.3559 65.0316 11.1086 65.8571 11.1233 65.8719C11.1381 65.8867 11.963 65.6392 12.9564 65.3217C14.123 64.9491 14.7748 64.7931 14.7968 64.8815C14.8158 64.9568 14.6684 65.8007 14.4693 66.7571C14.2703 67.7134 14.126 68.5145 14.1486 68.5372C14.1713 68.5599 14.958 68.2425 15.8968 67.8318C16.8356 67.4212 17.6361 67.1175 17.6754 67.157C17.7148 67.1965 17.6622 68.0583 17.5585 69.0721C17.4549 70.086 17.3809 70.9264 17.3942 70.9397C17.4075 70.9531 18.178 70.5354 19.1064 70.0115L20.7945 69.0592L20.8548 71.0351L20.9151 73.011L22.482 71.8729C24.3092 70.5456 24.1129 70.439 24.3558 72.8917C24.443 73.7728 24.5479 74.5147 24.5889 74.54C24.63 74.5654 25.3029 74.014 26.0841 73.3147C26.8654 72.6154 27.5222 72.0626 27.5436 72.0862C27.565 72.1098 27.7596 72.9575 27.976 73.9701C28.1924 74.9826 28.4046 75.811 28.4477 75.811C28.4908 75.811 29.0886 75.184 29.7763 74.4177C30.4639 73.6513 31.0648 73.0674 31.1115 73.12C31.1583 73.1725 31.426 73.949 31.7064 74.8453C31.9869 75.7416 32.2588 76.5197 32.3108 76.5743C32.3629 76.6289 32.9091 75.9907 33.5249 75.1559C34.1406 74.3211 34.6779 73.6381 34.7188 73.6381C34.7597 73.6381 35.1435 74.4289 35.5716 75.3954C36.2359 76.8947 36.3717 77.1231 36.4974 76.9511C36.5784 76.8402 37.0323 76.0766 37.5061 75.2542C37.9798 74.4317 38.3834 73.7588 38.403 73.7588C38.4226 73.7588 38.8224 74.4244 39.2914 75.2376C39.7604 76.051 40.215 76.8122 40.3014 76.929C40.44 77.1165 40.5505 76.9343 41.2347 75.3899C41.6615 74.4264 42.0455 73.6381 42.088 73.6381C42.1305 73.6381 42.6413 74.2899 43.2231 75.0865C43.805 75.8831 44.3256 76.5625 44.3802 76.5963C44.4348 76.63 44.7351 75.8831 45.0477 74.9366C45.3601 73.99 45.6547 73.1725 45.7024 73.12C45.75 73.0674 46.3515 73.6513 47.0392 74.4177C47.7268 75.184 48.3247 75.811 48.3678 75.811C48.4108 75.811 48.623 74.9827 48.8395 73.9701C49.0559 72.9576 49.2505 72.1098 49.2718 72.0862C49.2933 72.0626 49.9501 72.6154 50.7313 73.3147C51.5126 74.014 52.1855 74.5654 52.2265 74.54C52.2675 74.5147 52.3725 73.7728 52.4597 72.8917C52.7025 70.439 52.5063 70.5456 54.3335 71.8729L55.9003 73.011L55.9606 71.0351L56.021 69.0592L57.709 70.0115C58.6375 70.5354 59.408 70.9531 59.4213 70.9397C59.4345 70.9264 59.3606 70.086 59.257 69.0721C59.1532 68.0583 59.1006 67.1965 59.1401 67.157C59.1794 67.1175 59.9798 67.4212 60.9186 67.8318C61.8574 68.2425 62.6441 68.5599 62.6668 68.5372C62.6895 68.5145 62.5452 67.7134 62.3462 66.7571C62.1471 65.8007 61.9997 64.9568 62.0186 64.8815C62.0407 64.7931 62.6925 64.9491 63.8591 65.3217C64.8524 65.6392 65.6773 65.8867 65.6922 65.8719C65.7069 65.8571 65.4596 65.0316 65.1423 64.0376C64.7699 62.8703 64.614 62.2181 64.7023 62.196C64.7776 62.177 65.621 62.3245 66.5767 62.5237C67.5324 62.7229 68.333 62.8673 68.3556 62.8446C68.3783 62.8219 68.0612 62.0347 67.6507 61.0953C67.2405 60.1558 66.9343 59.3576 66.9704 59.3215C67.0064 59.2854 67.8672 59.3386 68.8832 59.4395C69.8991 59.5405 70.7434 59.6102 70.7592 59.5942C70.7752 59.5783 70.3575 58.8068 69.8312 57.8798L68.8743 56.1943L70.8471 56.134L72.8199 56.0736L71.6972 54.5043C70.7783 53.2198 70.6112 52.9217 70.7773 52.8619C70.8888 52.8217 71.6859 52.7195 72.5484 52.6348C73.411 52.5501 74.1828 52.4459 74.2638 52.4034C74.359 52.3533 73.9656 51.8248 73.1479 50.9041C72.4532 50.1221 71.8849 49.4653 71.8849 49.4444C71.8849 49.4236 72.7264 49.2271 73.7548 49.0077C74.7833 48.7884 75.6247 48.5723 75.6247 48.5274C75.6247 48.4826 74.9992 47.8846 74.2346 47.1984C73.4701 46.5122 72.8865 45.9129 72.9377 45.8665C72.989 45.8203 73.8046 45.5266 74.7501 45.214C75.6955 44.9015 76.4692 44.6219 76.4692 44.593C76.4692 44.5639 75.8041 44.0484 74.9914 43.4473C74.1786 42.8463 73.4997 42.3169 73.4827 42.2708C73.4658 42.2247 74.2366 41.8389 75.1958 41.4135C76.155 40.9879 76.9175 40.6036 76.8902 40.5594C76.8628 40.5151 76.107 40.0533 75.2104 39.5332C73.8134 38.7227 73.6102 38.5677 73.7882 38.4483C73.9026 38.3716 74.6719 37.9113 75.498 37.4254L77 36.5418L76.0409 36.1009C75.5134 35.8585 74.715 35.5012 74.2666 35.3069C73.8182 35.1127 73.4653 34.9156 73.4824 34.869C73.4995 34.8225 74.1786 34.2927 74.9914 33.6916C75.8041 33.0906 76.4692 32.5751 76.4692 32.546C76.4692 32.517 75.6955 32.2374 74.7501 31.9249C73.8046 31.6124 72.9893 31.319 72.9383 31.2729C72.8874 31.2269 73.5041 30.5968 74.3089 29.8727L75.7721 28.5561L73.9793 28.1649C72.9932 27.9498 72.1091 27.7582 72.0144 27.7392C71.9072 27.7179 72.326 27.16 73.1229 26.263C73.8272 25.4699 74.3821 24.7864 74.356 24.744C74.3298 24.7016 73.5879 24.5955 72.7073 24.5082C70.2828 24.2679 70.3882 24.4633 71.6967 22.6347L72.8199 21.0653L70.8471 21.005L68.8743 20.9446L69.8312 19.2591C70.3575 18.3321 70.7757 17.5611 70.7603 17.5458C70.745 17.5305 69.9034 17.6028 68.8902 17.7065C67.8771 17.8103 67.019 17.8662 66.9836 17.8307C66.9482 17.7952 67.2536 16.9964 67.6626 16.0555C68.0715 15.1146 68.3854 14.3242 68.3602 14.299C68.335 14.2738 67.5415 14.4142 66.5967 14.6111C65.652 14.808 64.8063 14.9691 64.7174 14.9691C64.6011 14.9691 64.7206 14.4558 65.1435 13.1376C65.4668 12.1304 65.7164 11.2914 65.6982 11.2732C65.6801 11.2549 64.8524 11.5 63.8591 11.8177C62.8656 12.1353 62.0367 12.3556 62.0171 12.307C61.9974 12.2585 62.1478 11.4173 62.3513 10.4377C62.555 9.45803 62.6999 8.63497 62.6736 8.60854C62.6472 8.5821 61.8574 8.89645 60.9186 9.30713C59.9798 9.7177 59.1812 10.0231 59.1439 9.98581C59.1066 9.94863 59.1623 9.08984 59.2676 8.0775C59.3728 7.06516 59.4433 6.22133 59.4243 6.20226C59.4052 6.18319 58.6317 6.59858 57.7053 7.12527L56.021 8.08281L55.9606 6.1087L55.9003 4.1346L54.332 5.258C53.0484 6.17751 52.7504 6.34471 52.6907 6.17848C52.6506 6.06694 52.5484 5.26935 52.4638 4.40622C52.3791 3.54308 52.275 2.77072 52.2325 2.68972C52.1825 2.59448 51.6543 2.98814 50.7342 3.80637C49.9527 4.50146 49.2963 5.07017 49.2754 5.07017C49.2547 5.07017 49.0583 4.22816 48.8391 3.19903C48.6199 2.16991 48.404 1.3279 48.3591 1.3279C48.3143 1.3279 47.7167 1.95382 47.031 2.71894C46.3453 3.48393 45.7463 4.06796 45.7 4.01666C45.6538 3.96535 45.3602 3.14918 45.0479 2.20311C44.7356 1.25692 44.4562 0.482873 44.4272 0.482873C44.3982 0.482873 43.883 1.14839 43.2824 1.96167C42.6817 2.77507 42.1536 3.45399 42.1087 3.47053C42.0637 3.48719 41.6759 2.70928 41.2472 1.74208C40.5792 0.235642 40.4462 0.0125547 40.3191 0.18651C40.2376 0.298053 39.7813 1.06546 39.3054 1.89165C38.5427 3.21569 38.4227 3.36804 38.2937 3.17573C38.2133 3.05574 37.7565 2.2922 37.2787 1.4788C36.8008 0.665399 36.3944 0 36.3753 0C36.3563 0 35.9915 0.787686 35.5646 1.75029ZM40.7662 5.8028C47.691 6.35364 54.0887 8.94546 59.4164 13.3582C60.8415 14.5385 63.0778 16.8139 64.2031 18.2285C71.313 27.1664 73.28 39.1475 69.4086 49.9338C68.2772 53.086 66.2585 56.6767 64.0903 59.3934C62.9571 60.8134 60.367 63.3849 58.8913 64.5553C51.5555 70.3732 42.1721 72.824 32.9187 71.3389C25.6059 70.1653 18.6315 66.3781 13.6984 60.9023C10.5724 57.4322 8.223 53.4109 6.79766 49.0905C5.62433 45.5343 5.13683 42.4558 5.14105 38.6298C5.153 27.5403 10.6382 17.4118 20.0142 11.1662C21.8215 9.96227 25.3205 8.23902 27.3693 7.54356C31.9017 6.00537 36.2344 5.44234 40.7662 5.8028ZM36.6183 7.80649C36.574 7.85067 36.5378 7.95931 36.5378 8.04792C36.5378 8.16212 36.727 8.20884 37.19 8.20884C37.7828 8.20884 37.8365 8.18687 37.7792 7.9674C37.7287 7.77413 37.6146 7.72597 37.2074 7.72597C36.9276 7.72597 36.6624 7.76218 36.6183 7.80649ZM38.468 7.9674C38.468 8.17661 38.5485 8.20884 39.0712 8.20884C39.594 8.20884 39.6744 8.17661 39.6744 7.9674C39.6744 7.7582 39.594 7.72597 39.0712 7.72597C38.5485 7.72597 38.468 7.7582 38.468 7.9674ZM34.7283 8.08812C34.7283 8.29733 34.8087 8.32956 35.3314 8.32956C35.8542 8.32956 35.9346 8.29733 35.9346 8.08812C35.9346 7.87892 35.8542 7.84668 35.3314 7.84668C34.8087 7.84668 34.7283 7.87892 34.7283 8.08812ZM40.3983 8.07641C40.3983 8.26618 40.5036 8.3135 41.0016 8.34803C41.4976 8.38243 41.6048 8.35467 41.6048 8.19158C41.6046 7.95207 41.362 7.84668 40.8106 7.84668C40.4856 7.84668 40.3983 7.89533 40.3983 8.07641ZM33.3409 8.08269C32.9669 8.13363 32.8502 8.20606 32.8218 8.40452C32.7907 8.62302 32.8351 8.65296 33.1234 8.60854C33.8562 8.49542 34.0044 8.43917 34.0044 8.27403C34.0044 8.0373 33.8984 8.00676 33.3409 8.08269ZM42.3285 8.22888C42.3285 8.47683 42.398 8.51353 43.0825 8.62737C43.4823 8.69389 43.5349 8.67397 43.5349 8.45571C43.5349 8.3199 43.4942 8.20642 43.4444 8.20353C43.3946 8.20063 43.1231 8.15367 42.8412 8.09911C42.3834 8.01038 42.3285 8.02426 42.3285 8.22888ZM31.2599 8.46464C31.0442 8.52693 30.8678 8.65465 30.8678 8.74845C30.8678 8.99822 30.9906 9.0261 31.5615 8.90611C31.9516 8.82402 32.0742 8.74217 32.0742 8.56387C32.0742 8.30578 31.8881 8.28308 31.2599 8.46464ZM44.2126 8.51691C44.1716 8.62387 44.1381 8.72769 44.1381 8.7476C44.1381 8.76752 44.3909 8.84744 44.7 8.9253C45.1505 9.0389 45.2816 9.03576 45.3616 8.90949C45.5254 8.65103 45.484 8.59405 45.073 8.51124C44.8573 8.46778 44.5924 8.40754 44.4841 8.37736C44.3752 8.34694 44.254 8.40923 44.2126 8.51691ZM29.5228 8.89886C29.0514 9.03516 28.9722 9.09998 29.026 9.30569C29.0693 9.47167 29.1527 9.52612 29.2852 9.47481C29.3927 9.43316 29.6309 9.3687 29.8148 9.33164C30.2042 9.25293 30.3164 9.11954 30.1807 8.89633C30.1003 8.76426 29.9872 8.76463 29.5228 8.89886ZM46.0683 9.0395C46.0683 9.20754 46.2079 9.30182 46.6043 9.40166C47.2896 9.5744 47.2747 9.57633 47.2747 9.31438C47.2747 9.16094 47.1303 9.0488 46.8083 8.95222C46.1748 8.76233 46.0683 8.77489 46.0683 9.0395ZM27.6535 9.49171C27.253 9.6338 27.1659 9.71589 27.2153 9.90469C27.2894 10.1885 27.2467 10.1862 27.8796 9.93958C28.5179 9.6909 28.4748 9.72892 28.3847 9.49364C28.2957 9.26174 28.3018 9.26174 27.6535 9.49171ZM47.9477 9.38632C47.7862 9.54797 47.8987 9.79206 48.1848 9.90095C48.9056 10.1751 49.0842 10.1796 49.0842 9.92328C49.0842 9.74365 48.9449 9.63271 48.5509 9.49835C48.2576 9.39828 47.9862 9.34794 47.9477 9.38632ZM25.8947 10.1629C25.4065 10.3744 25.3419 10.4414 25.4432 10.6309C25.5573 10.8444 25.5784 10.8445 26.0446 10.6356C26.6492 10.3647 26.6912 10.3214 26.5661 10.0976C26.4775 9.93934 26.3915 9.94766 25.8947 10.1629ZM49.7716 10.0964C49.5776 10.2904 49.7171 10.4881 50.1779 10.6727C50.4477 10.7806 50.7191 10.8377 50.7811 10.7993C51.0003 10.6638 50.8896 10.4039 50.5621 10.2852C50.3797 10.2192 50.146 10.1307 50.0431 10.0885C49.94 10.0465 49.818 10.05 49.7716 10.0964ZM24.086 10.9915C23.7837 11.1512 23.6602 11.2872 23.7068 11.4087C23.7976 11.6453 23.9079 11.6365 24.4748 11.347C24.7985 11.1819 24.9267 11.048 24.8793 10.9245C24.7893 10.6897 24.632 10.703 24.086 10.9915ZM51.4419 10.9552C51.3509 11.1921 51.4364 11.2753 52.015 11.5135C52.4257 11.6824 52.48 11.6827 52.5438 11.5165C52.6322 11.2859 52.5207 11.1774 51.9585 10.9461C51.5584 10.7816 51.508 10.7826 51.4419 10.9552ZM22.3933 11.8744C21.9052 12.1527 21.8929 12.1719 22.0467 12.4147C22.1925 12.6448 23.1782 12.1414 23.1244 11.8642C23.0696 11.5816 22.9028 11.584 22.3933 11.8744ZM53.1437 11.887C53.0986 12.0047 53.2464 12.1667 53.5832 12.3688C54.049 12.6481 54.103 12.6567 54.2398 12.4725C54.3676 12.3005 54.3247 12.2323 53.9382 11.9946C53.4086 11.6686 53.2364 11.6453 53.1437 11.887ZM20.8213 12.8617C20.3514 13.1812 20.3158 13.2446 20.4702 13.4878C20.5402 13.5981 20.6875 13.5544 21.0415 13.3184C21.3037 13.1434 21.5422 12.9802 21.5714 12.9557C21.6007 12.9312 21.5449 12.8313 21.4474 12.7337C21.2915 12.5778 21.2161 12.5932 20.8213 12.8617ZM54.8246 12.8738C54.7828 12.9829 54.7634 13.082 54.7815 13.0939C54.7997 13.1059 54.9858 13.234 55.1951 13.3785C55.6432 13.6879 55.7896 13.7055 55.8831 13.4615C55.9277 13.345 55.7952 13.1752 55.5061 12.9787C54.9802 12.6211 54.9248 12.6125 54.8246 12.8738ZM19.247 13.9679C18.8069 14.2813 18.6943 14.5248 18.9239 14.6668C19.0775 14.7618 19.8897 14.147 19.8897 13.9357C19.8897 13.6407 19.6927 13.6506 19.247 13.9679ZM56.3929 13.9602C56.3511 14.0693 56.3317 14.1687 56.3498 14.1809C56.368 14.1932 56.5766 14.3474 56.8134 14.5235C57.1445 14.7696 57.2769 14.8108 57.3865 14.7012C57.6022 14.4853 57.569 14.424 57.0489 14.0797C56.4828 13.7048 56.4904 13.7061 56.3929 13.9602ZM17.6596 15.2252C17.321 15.5227 17.2597 15.6372 17.3685 15.7685C17.5555 15.9938 17.5992 15.9813 18.0477 15.5729C18.2904 15.3519 18.4107 15.1483 18.3665 15.0332C18.2647 14.7677 18.1426 14.8008 17.6596 15.2252ZM57.9018 15.137C57.7906 15.271 57.8629 15.3843 58.2602 15.6993C58.6621 16.0179 58.7785 16.061 58.8654 15.9237C59.0217 15.6765 59.0158 15.6643 58.5608 15.301C58.0782 14.9157 58.0841 14.9172 57.9018 15.137ZM16.2794 16.469C16.0275 16.729 15.9038 16.9555 15.9492 17.0737C16.0558 17.3516 16.1777 17.3098 16.6336 16.8391C16.9983 16.4626 17.0238 16.3953 16.8629 16.2344C16.7021 16.0734 16.6372 16.0995 16.2794 16.469ZM59.3342 16.3626C59.1917 16.5343 59.2315 16.6107 59.6467 16.9628C60.057 17.3105 60.1467 17.3429 60.2964 17.1967C60.392 17.1034 60.4457 17.0121 60.4157 16.994C60.3858 16.9758 60.1669 16.782 59.9293 16.5634C59.5379 16.2033 59.4819 16.1843 59.3342 16.3626ZM14.894 17.8756C14.55 18.2846 14.515 18.4145 14.7153 18.5383C14.7888 18.5837 15.0399 18.4298 15.2732 18.1962C15.6789 17.7902 15.7188 17.5041 15.3694 17.5041C15.2796 17.5041 15.0657 17.6713 14.894 17.8756ZM60.7064 17.8132C60.6272 18.0196 61.2115 18.7113 61.4651 18.7113C61.7947 18.7113 61.7588 18.4287 61.3792 18.037C60.9347 17.578 60.8122 17.5372 60.7064 17.8132ZM31.4107 17.9632C30.5256 18.2709 29.5923 18.939 28.5615 20.003C27.7868 20.8024 26.3895 22.5527 26.0703 23.1235C25.9903 23.2666 25.8834 23.2666 25.3422 23.1238C23.769 22.7085 21.9984 22.7858 20.8817 23.3187C20.0183 23.7305 19.7667 24.5596 20.3092 25.2048C20.7943 25.7817 21.7024 26.0995 23.105 26.1832L24.3297 26.2562L23.7923 27.514C23.0155 29.3315 22.6463 30.6766 22.6297 31.7489C22.6076 33.1822 23.0442 33.7296 24.3297 33.8804L24.8962 33.9469L24.9062 32.4556C24.9172 30.844 25.1908 29.4394 25.9291 27.207L26.2933 26.1056L27.6456 26.0212C28.3894 25.9748 29.12 25.9077 29.2694 25.8722C29.4725 25.8238 29.5408 25.861 29.5408 26.02C29.5408 26.2265 28.5119 31.2364 28.3828 31.6584C28.3239 31.8507 28.4374 31.8696 29.6511 31.8696C30.9343 31.8696 30.9862 31.8595 31.0465 31.598C31.081 31.4485 31.3528 30.1584 31.6505 28.7309C31.9484 27.3034 32.2208 26.0133 32.256 25.8639C32.3034 25.6626 32.407 25.5923 32.6556 25.5923C33.0311 25.5923 33.2806 25.3996 33.2806 25.1095C33.2806 24.9589 33.185 24.9276 32.8456 24.9673C32.4658 25.0116 32.4191 24.9894 32.4779 24.7921C32.6791 24.1167 33.8997 18.0833 33.8459 18.0296C33.7365 17.9201 32.8779 17.7513 32.4361 17.7525C32.2039 17.7529 31.7424 17.8478 31.4107 17.9632ZM43.936 18.646C43.2181 18.9586 42.8879 19.8371 43.2229 20.5436C43.472 21.069 43.9783 21.3671 44.6211 21.3671C45.036 21.3671 45.2014 21.293 45.5375 20.9567C46.2491 20.2446 46.0539 19.0818 45.1506 18.6529C44.6817 18.4303 44.4351 18.4288 43.936 18.646ZM13.6182 19.3917C13.2527 19.8084 13.24 19.8507 13.4376 19.9953C13.623 20.131 13.6946 20.0949 13.9985 19.7122C14.5855 18.973 14.2407 18.6824 13.6182 19.3917ZM30.9885 19.1864C30.9885 19.3724 29.7793 25.0316 29.7288 25.0822C29.6939 25.1171 27.5008 24.0033 27.2707 23.8336C27.2033 23.784 27.8655 22.5414 28.4243 21.6689C29.1638 20.5143 29.7291 19.8376 30.3011 19.4231C30.8034 19.059 30.9885 18.9953 30.9885 19.1864ZM61.9309 19.1964C61.8892 19.2639 62.0294 19.5395 62.2425 19.8087C62.5842 20.2405 62.6509 20.2772 62.8081 20.1199C62.9653 19.9626 62.9455 19.8904 62.6403 19.5076C62.2904 19.0688 62.0695 18.9718 61.9309 19.1964ZM12.4709 20.9051C12.192 21.327 12.1701 21.4201 12.3158 21.5658C12.4614 21.7117 12.5382 21.6618 12.8607 21.2125C13.2137 20.7207 13.223 20.6811 13.016 20.5518C12.8265 20.4334 12.7503 20.4826 12.4709 20.9051ZM63.2062 20.6944C63.0927 20.8313 63.1293 20.9666 63.3843 21.352C63.6598 21.7686 63.7362 21.8179 63.9247 21.7001C64.1314 21.5709 64.1233 21.5324 63.7865 21.0425C63.5897 20.7563 63.4108 20.5221 63.3888 20.5221C63.367 20.5221 63.2848 20.5996 63.2062 20.6944ZM11.4217 22.484C11.1834 22.8552 11.1312 23.0301 11.2256 23.1439C11.4233 23.3824 11.4995 23.3372 11.799 22.8042C12.0341 22.3855 12.0513 22.2842 11.9115 22.1443C11.7716 22.0044 11.6964 22.0564 11.4217 22.484ZM39.0805 22.404C38.6331 22.7807 38.5939 23.2399 38.9685 23.7164C39.1797 23.9853 39.2931 24.0328 39.5834 23.9748L39.9392 23.9035L39.8531 24.6573C39.5527 27.287 38.2564 29.8347 37.0668 30.1334C36.89 30.1779 36.6036 30.1647 36.4305 30.1041C35.9386 29.9322 35.9729 29.4278 36.7119 25.9547C37.0806 24.2216 37.3823 22.7232 37.3823 22.6245C37.3823 22.4752 37.1682 22.4512 36.0961 22.4797L34.8098 22.5139L34.1002 25.8337C33.3187 29.4901 33.2539 30.3602 33.7162 30.9931C34.1048 31.5251 34.7582 31.7831 35.7017 31.7771C38.0699 31.7624 39.9055 29.6261 40.6528 26.0148C41.0738 23.9804 40.9046 22.5475 40.2058 22.2289C39.7486 22.0205 39.4878 22.061 39.0805 22.404ZM50.2303 22.2743C50.164 22.2981 49.6939 22.4068 49.1858 22.5159L48.262 22.7143L47.9925 23.8213C47.8442 24.4301 47.5635 25.374 47.3686 25.9188C47.0553 26.795 46.9638 26.9343 46.575 27.126C46.0257 27.3968 45.7606 27.8508 45.5417 28.896C45.3353 29.881 45.0007 30.3003 44.421 30.3003C43.7333 30.3003 43.7255 30.3821 44.9631 24.6265L45.4174 22.5139L44.1547 22.4794C43.4602 22.4605 42.8542 22.4876 42.808 22.5398C42.6447 22.7242 41.3634 29.1957 41.3639 29.8338C41.3646 30.917 41.9155 31.5596 43.0208 31.7662C43.7913 31.9103 44.2121 31.746 44.9235 31.0233C45.5342 30.4028 45.7064 30.3052 45.7064 30.5795C45.7064 30.8212 46.3124 31.3496 46.8524 31.5787C47.615 31.9023 49.5676 31.8703 50.3638 31.5212C52.223 30.7063 52.7091 28.9843 51.8025 26.4261C51.1819 24.6752 51.0316 24.0932 50.9401 23.0874C50.8684 22.298 50.8355 22.2131 50.6057 22.2217C50.4655 22.2269 50.2967 22.2507 50.2303 22.2743ZM64.2262 22.33C64.1566 22.4427 64.6424 23.4185 64.7673 23.4166C64.8004 23.4161 64.901 23.3691 64.9908 23.3121C65.1228 23.2285 65.0997 23.1134 64.8702 22.7113C64.5924 22.2247 64.3718 22.0941 64.2262 22.33ZM25.228 23.5465C25.4768 23.6155 25.6804 23.6919 25.6804 23.7162C25.6804 23.7404 25.4549 24.1516 25.1794 24.6299L24.6783 25.4996L23.7015 25.4183C22.4465 25.3141 21.6561 24.9568 21.6001 24.4684C21.5182 23.7537 22.1657 23.4304 23.6898 23.4248C24.287 23.4225 24.9792 23.4773 25.228 23.5465ZM10.4384 24.1807C10.2245 24.5429 10.1748 24.7299 10.2641 24.8378C10.4528 25.0661 10.5168 25.0278 10.8117 24.5111C11.1289 23.9551 11.1449 23.831 10.9103 23.7409C10.798 23.6978 10.6328 23.8519 10.4384 24.1807ZM65.1913 24.02C65.1217 24.1328 65.6075 25.1085 65.7324 25.1066C65.7655 25.1061 65.8675 25.0583 65.9588 25.0004C66.095 24.9141 66.0746 24.8055 65.8461 24.3986C65.575 23.916 65.3397 23.7798 65.1913 24.02ZM49.2606 26.9112C49.6002 28.0395 49.6518 29.0202 49.4027 29.61C49.1968 30.0975 48.6521 30.6452 48.2804 30.7385C47.443 30.9488 46.4303 30.3011 46.4301 29.5551V29.1535L47.007 29.1935C47.5027 29.2279 47.6301 29.1874 47.9119 28.9054C48.0922 28.7249 48.2458 28.4625 48.2532 28.3222C48.284 27.7319 48.2111 27.4512 47.9741 27.2491L47.723 27.0347L48.1904 25.5196L48.6579 24.0045L48.8062 24.9492C48.8877 25.4689 49.0922 26.3518 49.2606 26.9112ZM28.2284 24.6464C28.9536 24.9836 29.2584 25.1818 29.1538 25.2481C29.0681 25.3025 28.4628 25.3479 27.8088 25.349C26.9074 25.3503 26.6333 25.3144 26.6759 25.1999C26.7068 25.117 26.8048 24.8454 26.894 24.5963C26.983 24.3474 27.0764 24.1436 27.1015 24.1436C27.1265 24.1436 27.6336 24.3699 28.2284 24.6464ZM9.53664 25.9846C9.29222 26.5334 9.30296 26.6787 9.58815 26.6787C9.77647 26.6787 10.2654 25.7334 10.163 25.5674C10.0177 25.3322 9.74691 25.5127 9.53664 25.9846ZM66.1171 25.6964C65.991 25.7764 66.0137 25.9098 66.2282 26.3516C66.4538 26.8161 66.5326 26.8878 66.7119 26.7917C66.9163 26.6822 66.9157 26.6536 66.6981 26.1671C66.4514 25.6158 66.3605 25.5422 66.1171 25.6964ZM8.90775 27.4657C8.84357 27.6305 8.73982 27.8964 8.67721 28.0567C8.57298 28.3238 8.69084 28.4895 8.98484 28.4895C9.046 28.4895 9.2383 28.0078 9.34181 27.5951C9.44531 27.1826 9.06265 27.0685 8.90775 27.4657ZM66.8181 27.5694C66.8181 27.6609 66.9017 27.936 67.004 28.1808C67.1315 28.4865 67.2546 28.6136 67.3961 28.5863C67.5095 28.5645 67.5907 28.5059 67.5766 28.4563C67.3177 27.5479 67.2438 27.403 67.0403 27.403C66.9181 27.403 66.8181 27.4779 66.8181 27.5694ZM8.14411 29.6421C7.98486 30.1098 7.98233 30.2009 8.12698 30.2565C8.37296 30.3509 8.50928 30.2301 8.58601 29.8501C8.62304 29.6661 8.69024 29.4206 8.73512 29.3043C8.79628 29.1461 8.75587 29.0931 8.57394 29.0931C8.39359 29.0931 8.28296 29.2343 8.14411 29.6421ZM67.4909 29.3194C67.4551 29.3775 67.5101 29.6731 67.6133 29.9761C67.7446 30.3617 67.8527 30.5074 67.9731 30.4612C68.1777 30.3826 68.1843 30.2655 68.0181 29.6665C67.9012 29.2452 67.6422 29.0746 67.4909 29.3194ZM7.65238 31.3289C7.60727 31.5694 7.54345 31.8365 7.51039 31.9227C7.47649 32.0109 7.55889 32.1078 7.69895 32.1444C7.96387 32.2137 8.05073 32.0385 8.10164 31.3311C8.1195 31.084 8.06678 30.9611 7.93094 30.9327C7.78834 30.903 7.71186 31.0118 7.65238 31.3289ZM68.1612 31.1354C68.0431 31.2084 68.0214 31.373 68.0822 31.7333C68.1735 32.2741 68.2698 32.3897 68.5418 32.2852C68.6867 32.2296 68.6966 32.1248 68.5963 31.7115C68.4485 31.1017 68.3743 31.0036 68.1612 31.1354ZM47.0828 32.8454C45.6032 32.9872 44.4318 33.9345 43.8465 35.4632C43.6753 35.91 43.2059 37.8512 42.8034 39.7767C42.401 41.7021 41.9625 43.5071 41.8288 43.7878C41.4703 44.5408 40.9783 44.9072 40.3258 44.9072C39.4526 44.9072 39.4497 44.7988 40.2242 41.13C40.5916 39.3898 40.9227 37.8437 40.96 37.6943C41.027 37.4249 41.0165 37.4226 39.6957 37.4226C38.5309 37.4226 38.356 37.4492 38.3023 37.6339C37.9597 38.8124 36.9795 43.9222 36.9756 44.5501C36.9666 46.002 37.6224 46.718 38.9609 46.718C39.7987 46.718 40.2981 46.5553 41.0138 46.0499L41.5688 45.6577L41.4937 46.0254C41.4093 46.4382 41.3633 46.4713 40.3024 46.8827C38.8216 47.4567 38.2268 48.1184 38.2268 49.1909C38.2268 50.7641 39.6505 51.6472 41.3734 51.1428C42.1972 50.9014 42.7857 50.4168 43.2169 49.624C43.5223 49.0624 44.3503 45.4705 45.7025 38.8411L45.8441 38.147H46.6197C47.2088 38.147 47.3953 38.1058 47.3953 37.9758C47.3953 37.8816 47.4282 37.7187 47.4685 37.6136C47.5304 37.4523 47.4273 37.4226 46.805 37.4226C46.1835 37.4226 46.0684 37.3896 46.0692 37.2114C46.0712 36.7696 46.5202 35.1434 46.7481 34.753C47.264 33.8689 48.3482 33.5323 49.0076 34.0514C49.3888 34.3513 49.4147 34.5254 49.0781 34.5254C48.9092 34.5254 48.7744 34.6599 48.6538 34.9489C48.3181 35.753 48.7253 36.3655 49.6087 36.385C50.6085 36.407 51.0791 35.9062 51.0689 34.831C51.0546 33.348 49.5675 32.6073 47.0828 32.8454ZM7.28528 33.1372C7.2509 33.3031 7.19444 33.5748 7.16006 33.7407C7.11036 33.9805 7.14558 34.0425 7.33137 34.0425C7.49881 34.0425 7.58784 33.9309 7.6443 33.6502C7.68773 33.4344 7.74998 33.1627 7.78267 33.0466C7.82538 32.8949 7.77254 32.8354 7.59496 32.8354C7.4286 32.8354 7.32751 32.9339 7.28528 33.1372ZM27.3161 34.482C26.881 35.3876 26.5248 36.1481 26.5248 36.172C26.5248 36.1959 26.837 36.2152 27.2185 36.2149L27.9122 36.2143L28.8106 34.7964C29.3046 34.0166 29.7859 33.2564 29.88 33.107L30.0511 32.8354H29.0792H28.1074L27.3161 34.482ZM56.3758 34.4756C55.9483 35.3777 55.5987 36.1382 55.5987 36.1656C55.5987 36.193 55.9108 36.2144 56.2924 36.2131L56.9861 36.2106L57.9512 34.6874C58.482 33.8496 58.9597 33.0902 59.0128 32.9998C59.0908 32.8666 58.9232 32.8354 58.1309 32.8354H57.1527L56.3758 34.4756ZM68.4497 33.4691C68.5604 34.1409 68.6512 34.2979 68.8562 34.1711C68.978 34.0958 68.9992 33.9242 68.9376 33.5127C68.87 33.0616 68.8078 32.9561 68.6097 32.9561C68.3892 32.9561 68.3735 33.0065 68.4497 33.4691ZM39.4225 33.7142C38.6904 34.2079 38.5091 34.9799 38.9537 35.7097C39.448 36.521 40.5609 36.6377 41.2478 35.9504C41.5472 35.6507 41.6046 35.497 41.6046 34.9948C41.6046 34.2772 41.3473 33.8325 40.7997 33.6036C40.2416 33.3701 39.891 33.3984 39.4225 33.7142ZM17.1753 34.7324C14.5123 35.1009 12.0565 36.8185 11.7436 38.5314C11.5661 39.5032 12.2002 40.3186 13.134 40.3193L13.5562 40.3196L13.5582 39.2031C13.5599 38.2916 13.6084 37.9958 13.8226 37.5923C14.1377 36.9984 14.8093 36.3857 15.4786 36.0815C16.4705 35.6307 16.3912 35.1785 16.3912 41.2895V46.7256L17.7888 46.6916L19.1865 46.6576L20.4898 43.6396C21.2066 41.9798 22.3643 39.3018 23.0623 37.6886L24.3314 34.7555L23.6563 34.7914L22.9812 34.8272L21.0931 39.5866L19.2049 44.346L19.1251 43.4012C19.0812 42.8815 19.0452 41.1963 19.0452 39.6563C19.0452 38.1162 19.01 36.3589 18.9668 35.7512L18.8885 34.6461L18.2128 34.6642C17.8413 34.6741 17.3744 34.7048 17.1753 34.7324ZM6.9797 35.0988C6.97886 35.2813 6.94532 35.553 6.90539 35.7024C6.84785 35.9173 6.88259 35.974 7.07223 35.974C7.25524 35.974 7.32932 35.8673 7.3865 35.5213C7.49954 34.8373 7.48421 34.7668 7.22267 34.7668C7.04027 34.7668 6.98103 34.8479 6.9797 35.0988ZM68.7715 35.4496C68.8001 35.8981 68.8588 36.0418 69.0268 36.0737C69.2168 36.1098 69.2402 36.0398 69.2077 35.5327C69.1791 35.0842 69.1204 34.9406 68.9524 34.9086C68.7624 34.8725 68.739 34.9425 68.7715 35.4496ZM6.81612 36.97C6.66279 37.5424 6.72697 37.9055 6.98139 37.9055C7.19046 37.9055 7.22267 37.825 7.22267 37.3019C7.22267 36.8686 7.17562 36.6983 7.05583 36.6983C6.96402 36.6983 6.85617 36.8205 6.81612 36.97ZM62.9577 37.0223C62.3273 37.1188 61.7796 37.2347 61.7407 37.28C61.7016 37.3252 61.5182 37.7969 61.333 38.328C60.8974 39.578 59.9875 41.7113 59.6599 42.2514C59.519 42.4838 59.2561 42.7985 59.0759 42.9508C58.8956 43.1032 58.7122 43.3476 58.6681 43.4941C58.5433 43.9092 57.8898 44.5361 57.2273 44.8763C56.7854 45.1032 56.4252 45.1892 55.8805 45.1975C54.9287 45.2122 54.5715 44.9271 54.4519 44.0572C54.3272 43.1496 54.4064 43.0367 55.3276 42.8092C57.424 42.2916 58.8999 40.5367 58.7037 38.795C58.575 37.6518 57.9282 37.2428 56.3843 37.328C55.211 37.3928 54.4624 37.7347 53.6172 38.5917C52.627 39.5957 51.7383 41.8279 51.7383 43.3112C51.7383 43.8298 51.6783 44.0014 51.377 44.3449C50.9433 44.8391 50.4072 45.0833 49.9872 44.9779C49.3767 44.8245 49.3839 44.6007 50.1094 41.1641C50.4807 39.4051 50.815 37.8437 50.8523 37.6943C50.9194 37.4248 50.9091 37.4226 49.5821 37.4226C48.2944 37.4226 48.2419 37.4328 48.1797 37.6943C47.6856 39.7707 46.8883 43.9267 46.877 44.4847C46.8575 45.4514 47.0779 46.044 47.6069 46.4477C47.9885 46.7387 48.1425 46.7773 48.894 46.77C49.9224 46.7601 50.7297 46.3985 51.4126 45.6424L51.8555 45.1516L52.0948 45.6209C52.9296 47.2584 56.0074 47.1977 57.9282 45.5058L58.4792 45.0204L58.6833 45.4509C59.6412 47.4708 63.4256 47.17 64.5505 44.9848C64.8696 44.3647 64.8864 43.6459 64.6668 40.0181C64.485 37.015 64.4588 36.8136 64.2522 36.8331C64.1706 36.8407 63.588 36.9259 62.9577 37.0223ZM68.869 37.4226C68.869 37.9457 68.9012 38.0262 69.1102 38.0262C69.3193 38.0262 69.3515 37.9457 69.3515 37.4226C69.3515 36.8996 69.3193 36.8191 69.1102 36.8191C68.9012 36.8191 68.869 36.8996 68.869 37.4226ZM26.2693 37.4628C24.1653 38.2429 22.6644 40.8881 22.6644 43.8164C22.6644 45.5705 23.2869 46.4395 24.7551 46.7345C26.187 47.0223 27.7812 46.4934 29.064 45.3049C29.4589 44.9391 29.7801 44.7135 29.7779 44.8036C29.7756 44.8938 29.6959 45.3206 29.6011 45.7522C29.5063 46.1838 29.4267 46.5776 29.4244 46.6274C29.4221 46.6773 30.0137 46.718 30.7391 46.718C31.8918 46.718 32.0655 46.6914 32.1181 46.5067C32.1512 46.3906 32.4907 44.7884 32.8725 42.9464L33.5667 39.5973L34.0162 39.2856C34.6562 38.8418 35.068 38.9167 35.2721 39.514C35.4738 40.1044 35.5001 40.1267 35.9919 40.1267C36.8493 40.1267 37.2617 39.6553 37.2617 38.6752C37.2617 38.2269 37.1956 38.0622 36.8946 37.761C36.5569 37.4231 36.4751 37.3979 35.8764 37.4476C35.4175 37.4857 35.0726 37.6058 34.7076 37.8545C33.8004 38.4728 33.849 38.4687 33.9419 37.9187L34.0257 37.4226H32.688C31.9524 37.4226 31.3504 37.4392 31.3504 37.4595C31.3504 37.4797 31.0799 38.7788 30.7494 40.3461L30.1483 43.1959L29.4124 43.9006C28.4101 44.8605 27.7519 45.1858 26.7859 45.1987C26.0917 45.208 25.9946 45.1778 25.7303 44.8702C25.4878 44.5882 25.4391 44.4019 25.4391 43.7559C25.4391 43.0065 25.4503 42.978 25.7708 42.9133C27.2683 42.6109 28.3859 41.9539 29.0264 40.9999C29.5178 40.2679 29.7012 39.5947 29.6332 38.7734C29.5899 38.2508 29.5081 38.0585 29.1963 37.7463C28.8302 37.3799 28.7641 37.3608 27.7592 37.3316C27.1023 37.3126 26.5415 37.3619 26.2693 37.4628ZM28.1405 38.4587C28.44 39.2393 27.9376 40.6246 27.0927 41.3483C26.6277 41.7465 25.7548 42.1246 25.6175 41.9872C25.5261 41.8957 26.0261 40.347 26.3703 39.6559C26.7825 38.8282 27.3363 38.2677 27.742 38.2677C27.9274 38.2677 28.0988 38.3498 28.1405 38.4587ZM57.1429 38.4125C57.5739 38.8439 57.1221 40.3776 56.3326 41.1633C55.8259 41.6675 54.8545 42.1506 54.6862 41.9821C54.6494 41.9452 54.7113 41.597 54.8236 41.208C55.4217 39.1373 56.531 37.8003 57.1429 38.4125ZM6.74012 39.2334C6.74012 39.7565 6.77233 39.837 6.98139 39.837C7.19046 39.837 7.22267 39.7565 7.22267 39.2334C7.22267 38.7104 7.19046 38.6298 6.98139 38.6298C6.77233 38.6298 6.74012 38.7104 6.74012 39.2334ZM68.9896 39.3541C68.9896 39.8102 69.0339 39.9577 69.1706 39.9577C69.3072 39.9577 69.3515 39.8102 69.3515 39.3541C69.3515 38.8981 69.3072 38.7505 69.1706 38.7505C69.0339 38.7505 68.9896 38.8981 68.9896 39.3541ZM62.0874 43.5464C62.0563 44.4416 62.0207 44.5718 61.7264 44.8663C61.4639 45.1288 61.261 45.2028 60.6899 45.2442C60.0306 45.2919 59.9612 45.272 59.7195 44.9644C59.5763 44.7822 59.4592 44.5308 59.4592 44.4057C59.4592 44.2232 59.5189 44.1933 59.7616 44.2542C60.441 44.4249 61.0186 43.5298 60.6209 42.9225C60.4451 42.6539 60.468 42.5602 61.0207 41.2891C61.3432 40.5476 61.6461 39.8223 61.6939 39.6777C61.8203 39.2951 62.1296 42.3352 62.0874 43.5464ZM6.78475 40.8329C6.82468 40.9824 6.85822 41.254 6.85907 41.4365C6.86039 41.6943 6.91818 41.7685 7.11784 41.7685C7.34777 41.7685 7.36695 41.7207 7.30012 41.3158C7.25898 41.0669 7.22472 40.7953 7.224 40.7122C7.22327 40.6293 7.10782 40.5613 6.96728 40.5613C6.76135 40.5613 6.726 40.6138 6.78475 40.8329ZM68.8505 41.2858C68.8161 41.7808 68.8441 41.8893 69.0056 41.8893C69.2158 41.8892 69.3472 41.5552 69.3498 41.014C69.351 40.7675 69.2924 40.682 69.1219 40.682C68.9323 40.682 68.885 40.7874 68.8505 41.2858ZM6.98139 42.7192C6.98139 43.3112 7.13641 43.7 7.3725 43.7C7.56275 43.7 7.59761 43.6435 7.53995 43.4284C7.50002 43.2789 7.46648 43.0073 7.46564 42.8248C7.46431 42.5738 7.40508 42.4928 7.22267 42.4928C7.06717 42.4928 6.98139 42.5733 6.98139 42.7192ZM68.6977 42.8852C68.5202 43.7567 68.5284 43.8348 68.794 43.7969C69.0075 43.7664 69.0561 43.6651 69.0867 43.1869C69.1157 42.7358 69.0839 42.6135 68.9382 42.6135C68.8363 42.6135 68.7281 42.7357 68.6977 42.8852ZM7.42872 44.3999C7.29373 44.4274 7.23377 44.5196 7.269 44.6453C7.3 44.7562 7.36153 45.0265 7.40568 45.2459C7.4631 45.5311 7.54321 45.6334 7.68616 45.6045C7.83491 45.5743 7.87593 45.4603 7.84613 45.159C7.78702 44.5612 7.6712 44.3505 7.42872 44.3999ZM68.3006 45.0977C68.1969 45.5516 68.2054 45.6623 68.3488 45.7173C68.5961 45.8122 68.7113 45.6466 68.8068 45.0581C68.8807 44.6037 68.8636 44.545 68.6586 44.545C68.4824 44.545 68.3968 44.6772 68.3006 45.0977ZM7.70595 46.4375C7.70631 46.5586 7.76168 46.8559 7.82888 47.0983C7.92756 47.4539 7.99741 47.527 8.19019 47.4767C8.32157 47.4423 8.42821 47.4069 8.42725 47.398C8.42616 47.3891 8.35245 47.1374 8.2633 46.8387C8.09863 46.2869 7.70462 46.0032 7.70595 46.4375ZM67.8596 46.9406C67.7167 47.4252 67.7179 47.5166 67.8683 47.6043C68.0942 47.736 68.1299 47.6922 68.325 47.0433C68.4779 46.5351 68.4735 46.496 68.2568 46.4392C68.0673 46.3896 67.9949 46.481 67.8596 46.9406ZM41.1821 47.5932C40.9885 48.5448 40.8549 48.9032 40.5653 49.2476C40.1686 49.7194 39.6466 49.7483 39.3623 49.3142C38.9879 48.7424 39.416 48.0151 40.4224 47.5132C40.7669 47.3413 41.0968 47.2008 41.1554 47.2008C41.214 47.2008 41.226 47.3773 41.1821 47.5932ZM8.18778 48.2726C8.18778 48.3717 8.53872 49.2738 8.60543 49.3465C8.62208 49.3646 8.72028 49.347 8.82366 49.3074C8.99268 49.2424 8.99316 49.1814 8.82958 48.7009C8.69977 48.3195 8.58178 48.1666 8.41772 48.1666C8.29129 48.1666 8.18778 48.2143 8.18778 48.2726ZM67.2623 48.821C67.0758 49.3686 67.0986 49.4945 67.384 49.4945C67.5439 49.4945 67.7055 49.1825 67.8556 48.5838C67.9162 48.3425 67.8848 48.2873 67.6869 48.2873C67.5074 48.2873 67.3966 48.4267 67.2623 48.821ZM9.00209 49.9486C8.74356 50.0055 8.74091 49.954 9.03792 50.626C9.28981 51.1958 9.3517 51.248 9.5902 51.0922C9.81097 50.9479 9.26713 49.8904 9.00209 49.9486ZM66.6018 50.5756C66.3831 51.1022 66.3772 51.1746 66.547 51.2399C66.783 51.3305 66.8668 51.2448 67.1021 50.6722C67.2752 50.2507 67.2729 50.2124 67.0675 50.1024C66.8784 50.0011 66.8126 50.0681 66.6018 50.5756ZM9.68358 51.8368C9.57959 52.108 10.0872 52.9995 10.2994 52.918C10.5366 52.827 10.5276 52.7169 10.2362 52.1454C9.9836 51.65 9.79553 51.5449 9.68358 51.8368ZM65.8535 52.2701C65.5642 52.8376 65.5554 52.9479 65.7922 53.0388C65.9156 53.0862 66.0494 52.9579 66.2144 52.634C66.5037 52.0665 66.5125 51.9563 66.2757 51.8654C66.1523 51.8179 66.0185 51.9463 65.8535 52.2701ZM10.6031 53.4766C10.4663 53.5612 10.488 53.6774 10.7244 54.1234C10.9656 54.5783 11.048 54.6481 11.2291 54.5511C11.4357 54.4404 11.4346 54.414 11.2057 53.9649C10.9251 53.4146 10.8292 53.3368 10.6031 53.4766ZM22.3125 54.2327L22.0415 55.0475L21.1164 55.0487L20.1913 55.0498L20.9453 55.5285C21.3601 55.7917 21.6993 56.0564 21.6993 56.1166C21.6993 56.1767 21.5638 56.5861 21.3982 57.0263L21.0972 57.8267L21.7903 57.2822C22.1715 56.9827 22.5274 56.7377 22.5812 56.7377C22.6348 56.7376 22.9594 56.9516 23.3021 57.2132C23.645 57.4748 23.9404 57.6739 23.9587 57.6555C23.9771 57.6372 23.8833 57.306 23.7505 56.9196C23.6176 56.5331 23.5089 56.1737 23.5089 56.1208C23.5089 56.0681 23.7532 55.8567 24.0517 55.6511C24.3503 55.4455 24.5946 55.2282 24.5946 55.1682C24.5946 55.1081 24.2597 55.0428 23.8504 55.0231L23.1062 54.9872L22.8449 54.2025L22.5836 53.4178L22.3125 54.2327ZM54.1981 54.2327L53.9576 54.9872L53.0678 55.0475L52.1781 55.1079L52.863 55.5618C53.2396 55.8114 53.5479 56.0609 53.5479 56.1164C53.5479 56.1716 53.4392 56.5331 53.3062 56.9196C53.1734 57.306 53.0797 57.6372 53.098 57.6555C53.1163 57.6739 53.4118 57.4748 53.7546 57.2132C54.0974 56.9516 54.4169 56.7376 54.4646 56.7376C54.5124 56.7376 54.8414 56.9567 55.1957 57.2243C55.5501 57.4921 55.84 57.6636 55.84 57.6054C55.84 57.5472 55.7314 57.1839 55.5987 56.7979C55.466 56.412 55.3574 56.0789 55.3574 56.0579C55.3574 56.0369 55.6286 55.8369 55.9602 55.6136C56.2915 55.3902 56.5268 55.1715 56.4829 55.1274C56.439 55.0835 56.0907 55.0475 55.7091 55.0475H55.0152L54.7542 54.2628C54.6107 53.8313 54.481 53.4782 54.466 53.4782C54.4511 53.4782 54.3306 53.8178 54.1981 54.2327ZM64.8796 54.0982C64.6791 54.4914 64.6581 54.6179 64.7809 54.6938C64.8665 54.7468 64.9808 54.7629 65.0347 54.7295C65.1996 54.6275 65.6063 53.7544 65.5261 53.6742C65.3406 53.4887 65.1148 53.6368 64.8796 54.0982ZM38.155 56.1642L37.6682 57.643L36.4094 57.7186C35.717 57.7604 34.9605 57.8024 34.7283 57.8122C34.3177 57.8295 34.3396 57.8519 35.5124 58.6182C36.1759 59.0517 36.7961 59.4517 36.8906 59.507C37.0327 59.5901 36.9727 59.865 36.5427 61.1C36.2569 61.9208 35.994 62.6689 35.9585 62.7625C35.9231 62.856 36.4597 62.4986 37.1509 61.968C37.8422 61.4375 38.4741 60.9648 38.5553 60.9176C38.6435 60.8664 39.2218 61.2227 39.9922 61.8033C40.7014 62.3376 41.3015 62.7549 41.3257 62.7306C41.35 62.7064 41.1267 62.0008 40.8295 61.1626L40.2892 59.6387L41.5622 58.7615L42.8352 57.8844L41.2603 57.7806L39.6855 57.6768L39.1874 56.1811C38.9134 55.3585 38.6787 54.6854 38.6655 54.6854C38.6525 54.6854 38.4227 55.3508 38.155 56.1642ZM29.6372 54.876C29.602 54.9371 29.4506 55.3674 29.3007 55.8322C29.1509 56.2969 28.9784 56.7315 28.9172 56.7979C28.8561 56.8643 28.2818 56.9458 27.6412 56.979L26.4765 57.0394L27.4657 57.6883C28.0099 58.0453 28.4551 58.3475 28.4551 58.3598C28.4551 58.3722 28.2922 58.8645 28.0931 59.4537C27.8941 60.043 27.7312 60.5677 27.7312 60.6199C27.7312 60.6719 28.1648 60.3822 28.6948 59.9761L29.6584 59.2376L30.1123 59.5592C30.362 59.7361 30.8216 60.0732 31.1338 60.3085L31.7014 60.7364L31.2954 59.5298L30.8893 58.3232L31.8677 57.6813L32.8461 57.0394L31.6458 56.979L30.4456 56.9186L30.0734 55.8417C29.8687 55.2494 29.6724 54.8148 29.6372 54.876ZM46.907 55.7298C46.7477 56.2379 46.5443 56.7268 46.4549 56.8163C46.3409 56.9304 45.9431 56.979 45.1248 56.979H43.9571L44.9222 57.5941C45.453 57.9323 45.9292 58.2485 45.9803 58.2968C46.0316 58.345 45.8832 58.9103 45.6507 59.5528C45.4183 60.1955 45.2477 60.7213 45.2716 60.7213C45.2956 60.7213 45.7399 60.3953 46.2591 59.997C46.7784 59.5986 47.2353 59.2726 47.2747 59.2726C47.314 59.2726 47.771 59.5986 48.2902 59.997C48.8094 60.3953 49.2537 60.7213 49.2777 60.7213C49.3016 60.7213 49.131 60.1955 48.8986 59.5528C48.6661 58.9103 48.5177 58.3473 48.569 58.3018C48.6201 58.2564 49.0612 57.9422 49.5491 57.6036L50.4362 56.9881L49.2475 56.9533L48.0588 56.9186L47.6982 55.8624C47.5 55.2815 47.3059 54.8061 47.2672 54.8061C47.2283 54.8061 47.0662 55.2218 46.907 55.7298ZM11.5842 55.2061C11.4857 55.3249 11.5286 55.4767 11.7548 55.8097C12.0749 56.2811 12.2556 56.363 12.3621 56.085C12.4248 55.9214 11.946 55.0521 11.7915 55.049C11.7499 55.0482 11.6566 55.1189 11.5842 55.2061ZM63.9007 55.6767C63.7228 55.9553 63.6038 56.2266 63.6364 56.2794C63.7678 56.492 64.0275 56.351 64.3204 55.9081C64.55 55.5609 64.5944 55.4057 64.4933 55.3045C64.2906 55.1017 64.2528 55.1253 63.9007 55.6767ZM12.6703 56.7751C12.5721 56.8935 12.6187 57.0453 12.8558 57.3787C13.1973 57.8589 13.2282 57.8753 13.4848 57.7127C13.6221 57.6258 13.5795 57.5103 13.2635 57.1109C12.8191 56.5494 12.8453 56.5642 12.6703 56.7751ZM62.7994 57.2225C62.4716 57.6862 62.455 57.9475 62.7537 57.9422C62.8327 57.9408 63.0442 57.7318 63.2236 57.4779C63.4701 57.1291 63.5157 56.9821 63.4106 56.8769C63.2081 56.6743 63.1729 56.6943 62.7994 57.2225ZM13.799 58.3044C13.7042 58.4579 13.8816 58.7802 14.2508 59.1257C14.5031 59.3619 14.5662 59.3763 14.69 59.2271C14.8066 59.0865 14.7611 58.9693 14.4543 58.6196C14.0596 58.1696 13.9228 58.1039 13.799 58.3044ZM61.5861 58.741C61.2809 59.1238 61.2611 59.196 61.4183 59.3533C61.5755 59.5106 61.6407 59.4759 61.9705 59.0591C62.2539 58.701 62.3106 58.5527 62.2046 58.4467C62.0031 58.245 61.9686 58.2614 61.5861 58.741ZM15.0817 59.7949C14.8991 60.0148 15.6569 60.764 15.9487 60.652C16.2309 60.5437 16.2047 60.4596 15.7521 60.0206C15.3027 59.5848 15.2661 59.5724 15.0817 59.7949ZM60.3153 60.166C59.9294 60.5645 59.8984 60.842 60.2397 60.842C60.4448 60.842 61.0522 60.1317 60.9948 59.9592C60.9086 59.7005 60.7067 59.7619 60.3153 60.166ZM16.4152 61.1077C16.3024 61.2206 16.3557 61.341 16.656 61.6509C17.0558 62.0638 17.284 62.1432 17.423 61.9181C17.4966 61.7989 16.8051 60.9627 16.633 60.9627C16.5929 60.9627 16.4948 61.028 16.4152 61.1077ZM58.9385 61.4587C58.5766 61.7573 58.5133 61.8666 58.6251 62.0012C58.8147 62.23 58.8558 62.2178 59.3229 61.7929C59.6715 61.4758 59.7054 61.3989 59.5606 61.2539C59.4158 61.109 59.3269 61.1382 58.9385 61.4587ZM17.8548 62.4525C17.7503 62.5784 17.8301 62.7023 18.215 63.0119C18.6091 63.3288 18.7309 63.3755 18.8152 63.2423C18.9787 62.984 18.9533 62.9284 18.5212 62.5986C18.0537 62.2418 18.0332 62.2372 17.8548 62.4525ZM57.4128 62.7785C57.046 63.0921 57.0166 63.1575 57.1715 63.3122C57.3263 63.4669 57.406 63.4398 57.8204 63.0914C58.1046 62.8525 58.258 62.638 58.2054 62.5528C58.0694 62.3329 57.8661 62.3907 57.4128 62.7785ZM19.3632 63.6795C19.2602 63.9482 20.2069 64.5581 20.4073 64.3521C20.5222 64.2342 20.4644 64.1273 20.1356 63.85C19.6683 63.456 19.4662 63.4114 19.3632 63.6795ZM55.9751 63.8633C55.5558 64.1673 55.4869 64.2685 55.6035 64.4091C55.727 64.5578 55.7962 64.5526 56.1043 64.3717C56.6016 64.0797 56.7236 63.9085 56.5966 63.6814C56.5041 63.516 56.4206 63.5404 55.9751 63.8633ZM20.936 64.7546C20.8611 64.9499 21.759 65.6019 21.9448 65.487C22.1765 65.3437 22.0524 65.0858 21.6321 64.8376C21.1261 64.5389 21.0234 64.5267 20.936 64.7546ZM54.4185 64.898C53.8904 65.2131 53.8515 65.2713 54.0061 65.5147C54.0743 65.6221 54.2328 65.5805 54.6074 65.357C55.1356 65.0419 55.1744 64.9837 55.0199 64.7402C54.9516 64.6329 54.7931 64.6744 54.4185 64.898ZM22.6242 65.6305C22.4391 65.8158 22.5746 65.9998 23.0763 66.2436C23.5369 66.4676 23.6183 66.4776 23.6795 66.3181C23.7828 66.0486 23.7904 66.0583 23.2724 65.7938C22.7353 65.5197 22.735 65.5196 22.6242 65.6305ZM52.7336 65.8816C52.4516 66.0412 52.2208 66.2236 52.2208 66.2871C52.2208 66.5281 52.5777 66.5232 53.0625 66.2758C53.5043 66.0503 53.5468 65.9939 53.41 65.8146C53.3243 65.7022 53.2524 65.6061 53.2502 65.6009C53.2481 65.5959 53.0155 65.7221 52.7336 65.8816ZM24.3352 66.5142C24.3252 66.5814 24.3117 66.6934 24.3051 66.763C24.2985 66.8326 24.5233 66.9927 24.8049 67.1189C25.3018 67.3415 25.3201 67.3417 25.436 67.1251C25.5206 66.9667 25.5122 66.8842 25.4068 66.8406C25.325 66.8068 25.0546 66.692 24.8057 66.5854C24.5377 66.4707 24.346 66.4416 24.3352 66.5142ZM50.9843 66.7255C50.551 66.9029 50.4052 67.1475 50.6446 67.2955C50.8452 67.4196 51.7531 66.9835 51.714 66.7819C51.6639 66.5235 51.5077 66.5114 50.9843 66.7255ZM26.0423 67.4424C26.0423 67.6022 26.2022 67.7302 26.5747 67.8683C27.1187 68.0701 27.2487 68.0492 27.2487 67.7602C27.2487 67.6003 26.9369 67.4385 26.3386 67.2883C26.1021 67.229 26.0423 67.26 26.0423 67.4424ZM49.235 67.4621C48.7357 67.6501 48.5891 67.8677 48.8522 68.0304C48.9237 68.0747 49.2166 68.0212 49.5031 67.9117C49.9207 67.7521 50.0118 67.6658 49.9624 67.4763C49.8917 67.2059 49.9144 67.2064 49.235 67.4621ZM27.8903 68.0381C27.8515 68.1393 27.8678 68.2653 27.9263 68.3182C28.0998 68.4746 28.8358 68.6912 28.9515 68.6197C29.2066 68.462 29.0177 68.2147 28.5096 68.0414C28.0189 67.8741 27.9533 67.8738 27.8903 68.0381ZM47.0635 68.2202C46.7014 68.3247 46.5437 68.5955 46.7651 68.7324C46.8166 68.7642 47.088 68.729 47.3683 68.6541C47.7273 68.5583 47.8779 68.4541 47.8779 68.3015C47.8779 68.0628 47.6776 68.0427 47.0635 68.2202ZM29.7432 68.5264C29.5404 68.7292 29.7032 68.912 30.1974 69.0365C30.884 69.2094 30.8678 69.2117 30.8678 68.9431C30.8678 68.7938 30.7532 68.6875 30.5361 68.6357C30.3537 68.5921 30.1189 68.5313 30.0147 68.5006C29.9103 68.4698 29.7881 68.4814 29.7432 68.5264ZM45.254 68.703C44.9825 68.7815 44.8619 68.8895 44.8619 69.0543C44.8619 69.3334 44.844 69.3307 45.5323 69.1572C45.9287 69.0573 46.0683 68.9631 46.0683 68.795C46.0683 68.5448 45.8766 68.5232 45.254 68.703ZM31.5515 69.1021C31.4639 69.3307 31.5515 69.3844 32.1742 69.4841C32.577 69.5485 32.6883 69.525 32.7506 69.3625C32.8502 69.103 32.84 69.0966 32.1795 69.0007C31.7403 68.937 31.6065 68.9586 31.5515 69.1021ZM43.4986 69.0915C43.0582 69.174 42.9291 69.2471 42.96 69.3969C42.9909 69.5473 43.1128 69.5849 43.4744 69.5554C44.0671 69.5071 44.2474 69.404 44.1522 69.1679C44.0909 69.0159 43.9751 69.0024 43.4986 69.0915ZM33.4239 69.5035C33.4835 69.8155 34.5696 69.9338 34.6472 69.6368C34.7131 69.3847 34.5033 69.2923 33.8651 69.2923C33.4716 69.2923 33.391 69.3309 33.4239 69.5035ZM41.4538 69.3787C41.2156 69.4148 41.1221 69.499 41.1221 69.6775C41.1221 69.8915 41.1746 69.9155 41.4991 69.8506C41.7065 69.8091 41.9779 69.7751 42.1023 69.7751C42.248 69.7751 42.3285 69.6893 42.3285 69.5337C42.3285 69.2854 42.2092 69.2643 41.4538 69.3787ZM35.3314 69.6403C35.3314 69.7809 35.3994 69.8965 35.4822 69.8972C35.5652 69.8979 35.8367 69.9322 36.0854 69.9734C36.4901 70.0402 36.5378 70.021 36.5378 69.7909C36.5378 69.5912 36.4636 69.5333 36.2061 69.532C36.0237 69.5312 35.7522 69.4976 35.6029 69.4576C35.3839 69.3989 35.3314 69.4342 35.3314 69.6403ZM37.2617 69.7751C37.2617 69.9843 37.3421 70.0166 37.8649 70.0166C38.3876 70.0166 38.468 69.9843 38.468 69.7751C38.468 69.5659 38.3876 69.5337 37.8649 69.5337C37.3421 69.5337 37.2617 69.5659 37.2617 69.7751ZM39.1919 69.7751C39.1919 69.9843 39.2723 70.0166 39.7951 70.0166C40.3178 70.0166 40.3983 69.9843 40.3983 69.7751C40.3983 69.5659 40.3178 69.5337 39.7951 69.5337C39.2723 69.5337 39.1919 69.5659 39.1919 69.7751Z" fill="white"/>
</svg>
