<svg width="80" height="16" viewBox="0 0 80 16" fill="none" xmlns="http://www.w3.org/2000/svg">
<path d="M7.32745 1.36274C7.60256 0.805304 8.39744 0.805305 8.67255 1.36274L10.1766 4.41035C10.2859 4.63171 10.4971 4.78514 10.7413 4.82063L14.1046 5.30934C14.7197 5.39873 14.9654 6.15471 14.5202 6.58861L12.0866 8.96084C11.9098 9.13315 11.8292 9.3814 11.8709 9.62469L12.4454 12.9743C12.5505 13.587 11.9074 14.0542 11.3572 13.765L8.349 12.1835C8.13051 12.0686 7.86949 12.0686 7.65099 12.1835L4.64282 13.765C4.0926 14.0542 3.44953 13.587 3.55461 12.9743L4.12912 9.62469C4.17085 9.3814 4.09019 9.13315 3.91342 8.96084L1.47976 6.58861C1.03462 6.15471 1.28025 5.39873 1.89542 5.30934L5.25866 4.82063C5.50294 4.78514 5.71412 4.63171 5.82336 4.41035L7.32745 1.36274Z" fill="#E7C602"/>
<path d="M23.3274 1.36274C23.6026 0.805304 24.3974 0.805305 24.6726 1.36274L26.1766 4.41035C26.2859 4.63171 26.4971 4.78514 26.7413 4.82063L30.1046 5.30934C30.7197 5.39873 30.9654 6.15471 30.5202 6.58861L28.0866 8.96084C27.9098 9.13315 27.8292 9.3814 27.8709 9.62469L28.4454 12.9743C28.5505 13.587 27.9074 14.0542 27.3572 13.765L24.349 12.1835C24.1305 12.0686 23.8695 12.0686 23.651 12.1835L20.6428 13.765C20.0926 14.0542 19.4495 13.587 19.5546 12.9743L20.1291 9.62469C20.1708 9.3814 20.0902 9.13315 19.9134 8.96084L17.4798 6.58861C17.0346 6.15471 17.2803 5.39873 17.8954 5.30934L21.2587 4.82063C21.5029 4.78514 21.7141 4.63171 21.8234 4.41035L23.3274 1.36274Z" fill="#E7C602"/>
<path d="M39.3274 1.36274C39.6026 0.805304 40.3974 0.805305 40.6726 1.36274L42.1766 4.41035C42.2859 4.63171 42.4971 4.78514 42.7413 4.82063L46.1046 5.30934C46.7197 5.39873 46.9654 6.15471 46.5202 6.58861L44.0866 8.96084C43.9098 9.13315 43.8292 9.3814 43.8709 9.62469L44.4454 12.9743C44.5505 13.587 43.9074 14.0542 43.3572 13.765L40.349 12.1835C40.1305 12.0686 39.8695 12.0686 39.651 12.1835L36.6428 13.765C36.0926 14.0542 35.4495 13.587 35.5546 12.9743L36.1291 9.62469C36.1708 9.3814 36.0902 9.13315 35.9134 8.96084L33.4798 6.58861C33.0346 6.15471 33.2803 5.39873 33.8954 5.30934L37.2587 4.82063C37.5029 4.78514 37.7141 4.63171 37.8234 4.41035L39.3274 1.36274Z" fill="#E7C602"/>
<path d="M55.3274 1.36274C55.6026 0.805304 56.3974 0.805305 56.6726 1.36274L58.1766 4.41035C58.2859 4.63171 58.4971 4.78514 58.7413 4.82063L62.1046 5.30934C62.7197 5.39873 62.9654 6.15471 62.5202 6.58861L60.0866 8.96084C59.9098 9.13315 59.8292 9.3814 59.8709 9.62469L60.4454 12.9743C60.5505 13.587 59.9074 14.0542 59.3572 13.765L56.349 12.1835C56.1305 12.0686 55.8695 12.0686 55.651 12.1835L52.6428 13.765C52.0926 14.0542 51.4495 13.587 51.5546 12.9743L52.1291 9.62469C52.1708 9.3814 52.0902 9.13315 51.9134 8.96084L49.4798 6.58861C49.0346 6.15471 49.2803 5.39873 49.8954 5.30934L53.2587 4.82063C53.5029 4.78514 53.7141 4.63171 53.8234 4.41035L55.3274 1.36274Z" fill="#E7C602"/>
<path d="M71.7758 1.58402C71.8675 1.39821 72.1325 1.39821 72.2242 1.58402L73.7283 4.63163C73.9103 5.00056 74.2623 5.25627 74.6694 5.31543L78.0327 5.80414C78.2377 5.83394 78.3196 6.08593 78.1712 6.23057L75.7376 8.6028C75.443 8.88997 75.3085 9.30372 75.3781 9.70921L75.9526 13.0589C75.9876 13.2631 75.7733 13.4188 75.5898 13.3224L72.5817 11.7409C72.2175 11.5495 71.7825 11.5495 71.4183 11.7409L68.4102 13.3224C68.2267 13.4188 68.0124 13.2631 68.0474 13.0589L68.6219 9.70921C68.6915 9.30372 68.557 8.88997 68.2624 8.6028L65.8288 6.23056C65.6804 6.08593 65.7623 5.83394 65.9673 5.80414L69.3306 5.31543C69.7377 5.25627 70.0897 5.00056 70.2717 4.63163L71.7758 1.58402Z" fill="#333333" stroke="#737373"/>
<mask id="mask0_134_1313" style="mask-type:alpha" maskUnits="userSpaceOnUse" x="64" y="0" width="16" height="16">
<path d="M71.3274 1.36274C71.6026 0.805304 72.3974 0.805305 72.6726 1.36274L74.1766 4.41035C74.2859 4.63171 74.4971 4.78514 74.7413 4.82063L78.1046 5.30934C78.7197 5.39873 78.9654 6.15471 78.5202 6.58861L76.0866 8.96084C75.9098 9.13315 75.8292 9.3814 75.8709 9.62469L76.4454 12.9743C76.5505 13.587 75.9074 14.0542 75.3572 13.765L72.349 12.1835C72.1305 12.0686 71.8695 12.0686 71.651 12.1835L68.6428 13.765C68.0926 14.0542 67.4495 13.587 67.5546 12.9743L68.1291 9.62469C68.1708 9.3814 68.0902 9.13315 67.9134 8.96084L65.4798 6.58861C65.0346 6.15471 65.2803 5.39873 65.8954 5.30934L69.2587 4.82063C69.5029 4.78514 69.7141 4.63171 69.8234 4.41035L71.3274 1.36274Z" fill="#F2F2F2"/>
</mask>
<g mask="url(#mask0_134_1313)">
<rect x="65" y="1" width="7" height="13" fill="#E7C602"/>
</g>
</svg>
