<svg width="24" height="24" viewBox="0 0 24 24" fill="none" xmlns="http://www.w3.org/2000/svg">
<path fill-rule="evenodd" clip-rule="evenodd" d="M20.0902 6.64153C20.5633 4.95197 19.0065 3.39511 17.3169 3.86819L4.03343 7.58756C2.1594 8.11229 1.79027 10.6076 3.43213 11.6525L8.71441 15.0139C8.80702 15.0729 8.88557 15.1514 8.9445 15.244L12.306 20.5263C13.3508 22.1682 15.8461 21.799 16.3709 19.925L20.0902 6.64153ZM17.7213 5.31264C18.2845 5.15495 18.8035 5.6739 18.6458 6.23709L14.9264 19.5206C14.7515 20.1452 13.9197 20.2683 13.5715 19.721L10.354 14.665L13.746 11.273C14.0389 10.9801 14.0389 10.5053 13.746 10.2124C13.4531 9.91947 12.9783 9.91947 12.6854 10.2124L9.29335 13.6044L4.23744 10.387C3.69016 10.0387 3.8132 9.20692 4.43788 9.03201L17.7213 5.31264Z" fill="white"/>
</svg>
