<svg width="32" height="32" viewBox="0 0 32 32" fill="none" xmlns="http://www.w3.org/2000/svg">
<path d="M2.66667 16.0001C2.66667 21.6923 6.23444 26.5523 11.2556 28.4645C11.1333 27.4234 11.0033 25.7067 11.2833 24.5023C11.5244 23.4667 12.84 17.9045 12.84 17.9045C12.84 17.9045 12.4433 17.1101 12.4433 15.9334C12.4433 14.089 13.5122 12.7112 14.8444 12.7112C15.9778 12.7112 16.5244 13.5612 16.5244 14.5801C16.5244 15.719 15.7989 17.4212 15.4244 19.0001C15.1122 20.3212 16.0878 21.399 17.39 21.399C19.7489 21.399 21.5633 18.9112 21.5633 15.3201C21.5633 12.1412 19.2789 9.92008 16.0178 9.92008C12.2422 9.92008 10.0256 12.7523 10.0256 15.6801C10.0256 16.8212 10.4644 18.0434 11.0133 18.709C11.0601 18.7592 11.0932 18.8207 11.1093 18.8875C11.1255 18.9542 11.1242 19.024 11.1056 19.0901C11.0044 19.5101 10.78 20.4112 10.7367 20.5956C10.6778 20.8379 10.5444 20.8901 10.2922 20.7723C8.63445 20.0012 7.59889 17.5779 7.59889 15.6312C7.59889 11.4434 10.64 7.59897 16.3678 7.59897C20.9722 7.59897 24.5511 10.8801 24.5511 15.2645C24.5511 19.839 21.6678 23.5212 17.6633 23.5212C16.3178 23.5212 15.0544 22.8212 14.6211 21.9956C14.6211 21.9956 13.9556 24.5312 13.7944 25.1512C13.4811 26.3556 12.6122 27.8801 12.0733 28.7456C13.3156 29.1279 14.6333 29.3334 16 29.3334C23.3633 29.3334 29.3333 23.3634 29.3333 16.0001C29.3333 8.63675 23.3633 2.66675 16 2.66675C8.63667 2.66675 2.66667 8.63675 2.66667 16.0001Z" fill="white"/>
</svg>
