<svg width="32" height="32" viewBox="0 0 32 32" fill="none" xmlns="http://www.w3.org/2000/svg">
<path d="M16.539 2.68812C17.878 2.66675 19.2094 2.67942 20.5393 2.66675C20.6198 4.28263 21.1831 5.92859 22.3295 7.07102C23.4737 8.24196 25.092 8.77795 26.6667 8.95925V13.2099C25.191 13.1601 23.7085 12.8434 22.3694 12.1878C21.7862 11.9155 21.2429 11.5648 20.7112 11.2061C20.7042 14.2906 20.7234 17.3712 20.692 20.443C20.6122 21.9187 20.1402 23.3874 19.3084 24.6034C17.9701 26.6278 15.6473 27.9476 13.2616 27.9888C11.7982 28.0751 10.3364 27.6634 9.08943 26.9049C7.02291 25.6477 5.56876 23.3462 5.35697 20.8761C5.33029 20.3529 5.32619 19.8288 5.34469 19.3053C5.52886 17.2967 6.4919 15.3753 7.98672 14.0681C9.68106 12.5457 12.0545 11.8205 14.2768 12.2496C14.2975 13.8132 14.2369 15.3753 14.2369 16.9389C13.2217 16.6 12.0353 16.695 11.1483 17.3308C10.4993 17.7719 10.0088 18.4209 9.75243 19.1778C9.54064 19.713 9.60126 20.3076 9.61354 20.8761C9.85679 22.6083 11.4713 24.0643 13.1948 23.9067C14.3374 23.894 15.4325 23.21 16.0279 22.2085C16.2205 21.8578 16.4362 21.4991 16.4477 21.0866C16.5482 19.1984 16.5083 17.3181 16.5206 15.4299C16.529 11.1745 16.5083 6.93089 16.5398 2.68892L16.539 2.68812Z" fill="white"/>
</svg>
