<svg width="32" height="32" viewBox="0 0 32 32" fill="none" xmlns="http://www.w3.org/2000/svg">
<path d="M28.775 10.7196C28.624 10.1948 28.3299 9.7196 27.924 9.34462C27.5065 8.95811 26.995 8.68164 26.4375 8.54129C24.3511 8.00537 15.9922 8.00537 15.9922 8.00537C12.5075 7.96673 9.02364 8.13667 5.56029 8.51422C5.0028 8.66494 4.49217 8.94759 4.07383 9.33704C3.66277 9.72247 3.36503 10.1978 3.2095 10.7185C2.83587 12.68 2.65434 14.6717 2.66735 16.6667C2.65402 18.6598 2.8351 20.6509 3.2095 22.6148C3.3617 23.1334 3.65833 23.6065 4.07049 23.9887C4.48266 24.3709 4.99593 24.647 5.56029 24.7931C7.67445 25.328 15.9922 25.328 15.9922 25.328C19.4814 25.3666 22.9697 25.1967 26.4375 24.8191C26.995 24.6788 27.5065 24.4023 27.924 24.0158C28.335 23.6336 28.6272 23.1583 28.7738 22.6408C29.1572 20.68 29.3436 18.6875 29.3304 16.6916C29.3593 14.6871 29.1731 12.6852 28.775 10.7185V10.7196ZM13.3348 20.3737V12.9607L20.2894 16.6677L13.3348 20.3737Z" fill="white"/>
</svg>
